<svg width="900" height="326" viewBox="0 0 900 326" fill="none" xmlns="http://www.w3.org/2000/svg">
<g clip-path="url(#clip0_117:22)">
<path d="M-217.585 9.91565L-197.84 29.3329C-178.025 48.6651 -138.536 87.4995 -87.9294 112.569C-37.191 137.68 24.3912 149.154 88.7727 157.866C153.022 166.535 219.939 172.399 275.777 191.18C331.817 209.918 376.716 241.447 429.646 263.924C482.514 286.274 543.211 299.616 597.21 320.606C651.342 341.639 698.644 370.278 751.716 392.585C804.655 414.85 863.23 430.742 892.589 438.602L921.876 446.548L804.531 587.606L776.162 578.555C747.794 569.505 691.056 551.405 634.582 533.388C577.977 515.33 521.767 497.397 465.161 479.339C408.688 461.323 351.95 443.222 295.476 425.206C238.871 407.147 182.661 389.215 126.055 371.156C69.5818 353.14 12.8442 335.039 -43.6294 317.023C-100.235 298.964 -156.445 281.032 -213.05 262.974C-269.524 244.957 -326.262 226.857 -354.631 217.807L-382.999 208.756L-217.585 9.91565Z" fill="#38C6F2"/>
<path d="M-279.793 84.6932L-249.515 91.4492C-219.309 98.2901 -158.754 111.802 -103.977 131.858C-48.9971 151.871 0.143757 178.3 53.7097 200.013C107.073 221.768 164.8 238.679 226.222 250.747C287.776 262.857 352.893 270.083 411.973 285.167C470.92 300.21 523.699 323.069 576.285 345.759C629.003 368.491 681.395 391.012 743.303 402.697C805.078 414.34 876.236 415.106 911.745 415.574L947.324 415.957L804.53 587.606L776.162 578.555C747.793 569.505 691.055 551.404 634.582 533.388C577.976 515.329 521.766 497.397 465.161 479.339C408.687 461.322 351.949 443.222 295.476 425.205C238.87 407.147 182.66 389.215 126.055 371.156C69.5809 353.14 12.8434 335.039 -43.6303 317.023C-100.236 298.964 -156.446 281.032 -213.051 262.974C-269.525 244.957 -326.263 226.857 -354.631 217.806L-383 208.756L-279.793 84.6932Z" fill="#16B2EB"/>
<path d="M-269.896 72.7966L-245.91 87.1154C-221.854 101.349 -173.882 129.987 -125.537 157.775C-77.0609 185.606 -28.3442 212.545 32.7148 225.25C93.642 237.913 166.921 236.13 229.12 247.263C291.523 258.354 342.784 282.234 395.36 305.136C447.875 327.911 501.503 349.751 555.29 370.996C609.21 392.284 663.016 413.105 722.025 428.274C780.831 443.486 844.638 453.09 876.541 457.891L908.444 462.693L804.53 587.605L776.162 578.555C747.793 569.505 691.055 551.404 634.582 533.388C577.976 515.329 521.766 497.397 465.161 479.339C408.687 461.322 351.949 443.222 295.476 425.205C238.87 407.147 182.66 389.215 126.055 371.156C69.581 353.14 12.8434 335.039 -43.6302 317.023C-100.236 298.964 -156.446 281.032 -213.051 262.974C-269.525 244.957 -326.262 226.857 -354.631 217.806L-383 208.756L-269.896 72.7966Z" fill="#009EE3"/>
<path d="M-305.948 116.134L-280.902 129.178C-255.785 142.137 -205.692 168.225 -154.52 192.615C-103.216 217.046 -50.965 239.737 10.2355 252.272C71.304 264.765 141.19 267.06 203.814 277.684C266.569 288.35 321.789 307.472 373.729 331.138C425.467 354.848 473.722 383.146 527.156 404.816C580.651 426.613 639.264 441.656 696.294 459.205C753.262 476.627 808.586 496.427 836.248 506.327L863.91 516.227L804.53 587.605L776.162 578.555C747.793 569.505 691.055 551.404 634.582 533.388C577.976 515.329 521.766 497.397 465.161 479.339C408.687 461.322 351.949 443.222 295.476 425.205C238.87 407.147 182.66 389.215 126.055 371.156C69.581 353.14 12.8435 335.039 -43.6302 317.023C-100.236 298.964 -156.446 281.032 -213.051 262.974C-269.525 244.957 -326.262 226.857 -354.631 217.806L-383 208.756L-305.948 116.134Z" fill="#0089D9"/>
<path d="M-328.569 143.326L-302.179 154.755C-275.861 166.27 -223.082 189.129 -168.305 209.185C-113.325 229.198 -56.4082 246.28 -0.368146 265.018C55.4693 283.799 110.369 304.109 162.955 326.799C215.672 349.532 265.944 374.602 320.924 394.615C375.772 414.585 435.054 429.627 492.517 446.454C550.042 463.407 605.545 482.189 663.211 498.973C720.745 515.715 780.31 530.417 810.093 537.767L839.875 545.118L804.53 587.606L776.161 578.555C747.793 569.505 691.055 551.404 634.581 533.388C577.976 515.329 521.766 497.397 465.16 479.339C408.687 461.322 351.949 443.222 295.476 425.205C238.87 407.147 182.66 389.215 126.055 371.156C69.5808 353.14 12.8433 335.039 -43.6304 317.023C-100.236 298.964 -156.446 281.032 -213.051 262.974C-269.525 244.957 -326.263 226.857 -354.631 217.806L-383 208.756L-328.569 143.326Z" fill="#0174CC"/>
</g>
<defs>
<clipPath id="clip0_117:22">
<rect width="900" height="326" fill="white"/>
</clipPath>
</defs>
</svg>
