<svg width="900" height="326" viewBox="0 0 900 326" fill="none" xmlns="http://www.w3.org/2000/svg">
<g clip-path="url(#clip0_117:22)">
<path d="M-221.384 26.4312L-200.635 44.7718C-179.821 63.0238 -138.324 99.705 -86.4568 122.05C-34.4558 144.43 27.6491 152.615 92.4026 157.893C157.022 163.136 224.156 165.437 280.912 181.224C337.869 196.958 384.38 226.056 438.43 245.689C492.411 265.198 553.73 275.296 608.769 293.388C663.942 311.514 712.699 337.6 766.881 357.055C820.928 376.476 880.266 389.232 910 395.522L939.669 401.9L829.985 548.994L801.175 541.464C772.365 533.934 714.746 518.873 657.395 503.883C599.91 488.858 542.827 473.938 485.341 458.913C427.99 443.923 370.371 428.862 313.02 413.872C255.535 398.847 198.451 383.927 140.966 368.902C83.6148 353.912 25.9957 338.851 -31.3555 323.861C-88.8408 308.836 -145.924 293.916 -203.409 278.891C-260.76 263.901 -318.38 248.84 -347.189 241.31L-375.999 233.78L-221.384 26.4312Z" fill="#38C6F2"/>
<path d="M-279.53 104.409L-248.937 109.546C-218.409 114.772 -157.222 125.048 -101.457 142.164C-45.4911 159.228 4.98463 183.009 59.6286 201.844C114.073 220.733 172.617 234.553 234.593 243.34C296.704 252.163 362.112 255.918 421.91 267.842C481.574 279.731 535.493 299.753 589.21 319.617C643.061 339.515 696.576 359.221 759.017 367.6C821.324 375.944 892.422 372.928 927.906 371.508L963.455 370L829.984 548.994L801.174 541.464C772.365 533.934 714.745 518.873 657.394 503.883C599.909 488.858 542.826 473.938 485.34 458.913C427.989 443.923 370.37 428.862 313.019 413.872C255.534 398.847 198.45 383.927 140.965 368.902C83.614 353.912 25.9948 338.851 -31.3564 323.861C-88.8416 308.836 -145.925 293.916 -203.41 278.891C-260.761 263.901 -318.38 248.84 -347.19 241.31L-376 233.78L-279.53 104.409Z" fill="#16B2EB"/>
<path d="M-270.28 92.0031L-245.567 105.027C-220.788 117.962 -171.362 144.01 -121.609 169.191C-71.7229 194.406 -21.6436 218.719 40.0043 228.162C101.518 237.569 174.599 231.895 237.302 239.707C300.206 247.466 352.664 268.589 406.382 288.665C460.033 308.618 514.745 327.577 569.586 345.934C624.56 364.326 679.397 382.259 739.129 394.272C798.66 406.338 862.887 412.537 895 415.636L927.114 418.736L829.984 548.994L801.174 541.464C772.364 533.933 714.745 518.873 657.394 503.883C599.909 488.858 542.826 473.938 485.34 458.913C427.989 443.923 370.37 428.862 313.019 413.872C255.534 398.847 198.45 383.927 140.965 368.902C83.6139 353.912 25.9948 338.851 -31.3565 323.861C-88.8417 308.836 -145.925 293.916 -203.41 278.891C-260.761 263.901 -318.381 248.84 -347.19 241.31L-376 233.78L-270.28 92.0031Z" fill="#009EE3"/>
<path d="M-303.978 137.194L-278.274 148.889C-252.504 160.495 -201.096 183.885 -148.7 205.521C-96.1705 227.192 -42.7875 247.074 18.9926 256.34C80.6387 265.57 150.548 264.149 213.647 271.43C276.881 278.746 333.039 294.907 386.164 315.78C439.088 336.707 488.778 362.401 543.288 381.201C597.866 400.125 657.196 412.032 715.077 426.526C772.891 440.896 829.189 457.728 857.338 466.144L885.487 474.561L829.984 548.994L801.174 541.464C772.364 533.933 714.745 518.873 657.394 503.883C599.909 488.858 542.826 473.938 485.34 458.913C427.989 443.922 370.37 428.862 313.019 413.872C255.534 398.847 198.45 383.927 140.965 368.902C83.614 353.912 25.9948 338.851 -31.3564 323.861C-88.8416 308.836 -145.925 293.916 -203.41 278.891C-260.761 263.901 -318.38 248.84 -347.19 241.31L-376 233.78L-303.978 137.194Z" fill="#0089D9"/>
<path d="M-325.122 165.55L-298.163 175.561C-271.269 185.661 -217.35 205.683 -161.585 222.8C-105.619 239.863 -47.8755 253.897 9.08115 269.631C65.8377 285.419 121.739 302.783 175.456 322.647C229.307 342.546 280.84 364.909 336.806 381.972C392.637 399 452.635 410.871 510.911 424.62C569.255 438.493 625.678 454.3 684.154 467.996C742.497 481.657 802.759 493.172 832.89 498.93L863.021 504.688L829.983 548.994L801.174 541.464C772.364 533.933 714.745 518.873 657.394 503.883C599.909 488.858 542.825 473.938 485.34 458.913C427.989 443.922 370.37 428.862 313.019 413.872C255.533 398.847 198.45 383.927 140.965 368.902C83.6138 353.911 25.9946 338.851 -31.3566 323.861C-88.8418 308.836 -145.925 293.916 -203.41 278.891C-260.761 263.9 -318.381 248.84 -347.19 241.31L-376 233.78L-325.122 165.55Z" fill="#0174CC"/>
</g>
<defs>
<clipPath id="clip0_117:22">
<rect width="900" height="326" fill="white"/>
</clipPath>
</defs>
</svg>
