<svg width="900" height="600" viewBox="0 0 900 600" fill="none" xmlns="http://www.w3.org/2000/svg">
<g clip-path="url(#clip0_117:22)">
<path d="M-264.448 156.365L-241.417 183.36C-218.336 210.22 -172.272 264.211 -118.589 296.38C-64.7719 328.599 -3.56897 339.216 59.7046 345.394C122.843 351.522 187.918 353.161 245.226 375.345C302.718 397.444 352.358 439.905 407.694 467.94C462.944 495.792 523.707 509.304 579.741 534.997C635.91 560.739 687.216 598.612 742.65 626.377C797.949 654.094 857.242 671.654 886.938 680.299L916.584 689.079L835.251 913.06L806.241 902.525C777.232 891.991 719.213 870.923 661.464 849.953C603.58 828.933 546.101 808.061 488.217 787.042C430.467 766.072 372.449 745.003 314.699 724.033C256.815 703.014 199.336 682.141 141.452 661.122C83.7031 640.152 25.6842 619.084 -32.0649 598.113C-89.9489 577.094 -147.428 556.222 -205.312 535.203C-263.061 514.232 -321.08 493.164 -350.09 482.63L-379.099 472.096L-264.448 156.365Z" fill="#38C6F2"/>
<path d="M-307.565 275.101L-277.233 281.992C-246.95 289.018 -186.285 302.8 -129.712 327.009C-72.9547 351.132 -20.3751 385.497 35.4021 412.318C90.9954 439.225 149.7 458.404 210.879 469.929C272.193 481.504 335.846 485.375 395.444 501.672C454.908 517.92 510.183 546.544 565.238 574.935C620.427 603.376 675.26 631.534 736.819 642.434C798.243 653.284 866.257 646.827 900.215 643.734L934.222 640.505L835.25 913.059L806.241 902.525C777.231 891.991 719.212 870.923 661.463 849.953C603.579 828.933 546.1 808.061 488.216 787.042C430.467 766.071 372.448 745.003 314.699 724.033C256.815 703.014 199.336 682.141 141.452 661.122C83.7026 640.152 25.6837 619.084 -32.0654 598.113C-89.9494 577.094 -147.429 556.222 -205.313 535.202C-263.062 514.232 -321.081 493.164 -350.09 482.63L-379.1 472.096L-307.565 275.101Z" fill="#16B2EB"/>
<path d="M-300.706 256.211L-274.734 275.111C-248.714 293.876 -196.77 331.675 -144.656 368.162C-92.4062 404.698 -40.1205 439.872 20.8503 452.391C81.6861 464.861 151.17 454.356 212.888 464.397C274.789 474.353 328.839 504.67 383.93 533.38C438.936 561.906 494.799 588.911 550.686 615.009C606.708 641.155 662.521 666.615 722.071 683.047C781.437 699.565 844.356 707.14 875.815 710.928L907.274 714.716L835.25 913.059L806.241 902.525C777.231 891.991 719.212 870.923 661.463 849.953C603.579 828.933 546.1 808.061 488.216 787.042C430.467 766.071 372.448 745.003 314.699 724.033C256.815 703.014 199.336 682.141 141.452 661.122C83.7026 640.152 25.6837 619.084 -32.0654 598.113C-89.9494 577.094 -147.429 556.222 -205.313 535.202C-263.062 514.232 -321.081 493.164 -350.09 482.63L-379.1 472.096L-300.706 256.211Z" fill="#009EE3"/>
<path d="M-325.694 325.024L-298.987 341.9C-272.232 358.641 -218.818 392.392 -164.744 423.482C-110.535 454.621 -55.7992 483.049 5.26951 495.298C66.2033 507.498 133.335 503.47 195.347 512.702C257.494 521.982 314.287 544.743 368.937 574.668C423.404 604.678 475.543 641.938 531.185 668.71C586.914 695.666 646.059 711.951 704.237 732.161C762.329 752.186 819.368 775.953 847.887 787.837L876.407 799.72L835.25 913.059L806.241 902.525C777.231 891.991 719.212 870.923 661.463 849.953C603.579 828.933 546.1 808.061 488.216 787.042C430.467 766.071 372.448 745.003 314.699 724.033C256.815 703.014 199.336 682.141 141.452 661.122C83.7026 640.152 25.6836 619.084 -32.0654 598.113C-89.9494 577.094 -147.429 556.222 -205.313 535.202C-263.062 514.232 -321.081 493.164 -350.09 482.63L-379.1 472.096L-325.694 325.024Z" fill="#0089D9"/>
<path d="M-341.373 368.201L-313.735 382.513C-286.147 396.96 -230.872 425.585 -174.298 449.793C-117.541 473.916 -59.5721 493.439 -2.08006 515.537C55.2281 537.722 111.973 562.298 167.027 590.69C222.217 619.13 275.58 651.336 332.337 675.459C388.959 699.533 448.742 715.743 507.177 734.825C565.698 754.09 622.688 776.311 681.306 795.307C739.79 814.253 799.769 829.924 829.759 837.76L859.748 845.595L835.25 913.059L806.241 902.525C777.231 891.991 719.212 870.923 661.463 849.953C603.579 828.933 546.1 808.061 488.216 787.042C430.467 766.071 372.448 745.003 314.699 724.033C256.815 703.014 199.335 682.141 141.451 661.122C83.7024 640.152 25.6835 619.083 -32.0656 598.113C-89.9496 577.094 -147.429 556.222 -205.313 535.202C-263.062 514.232 -321.081 493.164 -350.09 482.63L-379.1 472.096L-341.373 368.201Z" fill="#0174CC"/>
</g>
<defs>
<clipPath id="clip0_117:22">
<rect width="900" height="600" fill="white"/>
</clipPath>
</defs>
</svg>
