<svg version="1.2" baseProfile="tiny-ps" xmlns="http://www.w3.org/2000/svg" viewBox="0 0 1026 1116" width="1026" height="1116">
	<title>OBJECTS</title>
	<style>
		tspan { white-space:pre }
		.shp0 { fill: #d8d8d8 } 
		.shp1 { fill: #c98c55 } 
		.shp2 { fill: #c1a884 } 
		.shp3 { fill: #ddc69e } 
		.shp4 { opacity: 0.302;mix-blend-mode: multiply;fill: #ddc69e } 
		.shp5 { opacity: 0.502;mix-blend-mode: multiply;fill: #ddc69e } 
		.shp6 { fill: #2b211d } 
		.shp7 { fill: #42342d } 
		.shp8 { fill: #54433d } 
		.shp9 { fill: #493a33 } 
		.shp10 { fill: #9d9d9c } 
		.shp11 { fill: #dadada } 
		.shp12 { fill: #b2b2b2 } 
		.shp13 { opacity: 0.302;mix-blend-mode: multiply;fill: #878787 } 
		.shp14 { fill: #ffffff } 
		.shp15 { opacity: 0.302;mix-blend-mode: multiply;fill: #9d9d9c } 
		.shp16 { fill: #f9b233 } 
		.shp17 { fill: #f39200 } 
		.shp18 { opacity: 0.302;mix-blend-mode: multiply;fill: #f39200 } 
		.shp19 { fill: #ffefab } 
	</style>
	<g id="OBJECTS">
		<g id="&lt;Group&gt;" style="opacity: 0.502">
			<path id="&lt;Path&gt;" class="shp0" d="M1025.35 1040.92C1025.35 1082.21 795.85 1115.68 512.75 1115.68C229.65 1115.68 0.15 1082.21 0.15 1040.92C0.15 999.64 229.65 966.17 512.75 966.17C795.85 966.17 1025.35 999.64 1025.35 1040.92Z" />
		</g>
		<g id="&lt;Group&gt;">
			<path id="&lt;Path&gt;" class="shp1" d="M556.23 12.12C548.62 6.65 540.87 2.64 533 1.04C541.27 2.38 549.15 6.25 556.23 12.12Z" />
			<path id="&lt;Path&gt;" class="shp2" d="M500.42 9.45C498.95 10.65 497.48 11.72 496.15 12.92C495.08 13.59 494.01 14.53 493.07 15.59C492.01 16.4 491.07 17.46 490.27 18.4C489.34 19.33 488.4 20.27 487.73 21.2C486.8 22.14 486 23.2 485.33 24.14C484.66 25.07 483.86 26.14 483.19 27.08C481.72 29.08 480.52 31.08 479.46 33.09C478.92 34.15 478.39 35.22 477.85 36.16C477.32 37.09 476.78 38.16 476.38 39.23C475.85 40.3 475.45 41.23 475.05 42.3C474.25 44.03 473.58 45.77 472.91 47.5C465.7 67.8 465.84 84.76 455.96 80.22C439.27 72.34 408.16 67.4 381.45 89.03C354.75 110.79 271.84 115.2 227.91 72.87C208.59 37.71 222.52 16.22 269.7 8.38C308.55 8.38 370.91 69.67 398.68 70.2C426.45 70.74 455.96 59.52 468.24 40.7C475.45 29.48 487.33 17.46 500.42 9.45Z" />
			<path id="&lt;Path&gt;" class="shp2" d="M502.95 7.85C502.15 8.38 501.22 9.05 500.42 9.45C500.55 9.32 500.55 9.32 500.68 9.19C501.49 8.78 502.15 8.25 502.95 7.85Z" />
			<path id="&lt;Path&gt;" class="shp1" d="M507.89 4.91C506.23 5.7 504.63 6.86 502.99 7.8C503.49 7.47 503.9 7.1 504.42 6.78C505.62 6.11 506.69 5.45 507.89 4.91Z" />
			<path id="&lt;Path&gt;" class="shp2" d="M716.98 154.19L715.25 154.32C697.62 155.12 552.76 160.06 576.66 104.12C591.74 69.13 579.33 32.02 557.56 13.06C569.31 21.87 580.66 33.75 590.68 43.5C608.43 60.72 701.9 52.31 724.19 96.37C738.97 125.66 736.57 144.93 716.98 154.19Z" />
			<path id="&lt;Path&gt;" class="shp3" d="M897.22 982.54C830.48 1014.17 806.97 1005.9 778.66 995.88C750.37 985.86 711.92 989.21 623.51 1022.59C483.31 1100.95 341.39 1024.31 309.76 1012.57C277.98 1000.83 242.99 1025.91 196.27 1040.89C54.35 1060.9 57.67 962.5 74.36 917.49C54.35 873.97 45.93 842.34 45.93 703.89C45.93 476.91 242.99 351.65 260.49 337.77C268.76 331.13 282.84 315.21 292.36 295.11C299.89 279.28 304.54 260.87 301.28 242.4C299.95 234.81 297.28 227.19 292.92 219.75C265.56 172.88 230.19 79.01 228.05 73.14L227.9 72.88C271.84 115.18 340.59 105.67 367.3 83.91C394.02 62.29 426.27 62.47 446.85 66.68C457.52 68.88 465.7 67.81 472.91 47.5C473.59 45.78 474.24 44.03 475.04 42.31C475.46 41.24 475.84 40.3 476.38 39.23C476.79 38.16 477.32 37.21 477.86 36.14C478.39 35.23 478.93 34.16 479.46 33.09C480.53 31.07 481.86 29.09 483.19 27.07C483.85 26.15 484.68 25.09 485.33 24.14C486.13 23.22 486.93 22.15 487.73 21.2C488.53 20.25 489.33 19.33 490.28 18.39C491.2 17.47 492.15 16.52 493.07 15.6C494.02 14.65 495.08 13.73 496.15 12.93C497.48 11.72 498.94 10.65 500.42 9.46C500.54 9.31 500.54 9.31 500.69 9.2C501.87 8.39 503.09 7.59 504.42 6.79C505.64 6.11 506.71 5.46 507.89 4.93C509.91 3.98 511.89 3.18 513.91 2.5C515.1 2.11 516.16 1.84 517.23 1.58C517.91 1.43 518.45 1.31 518.98 1.16C520.05 0.89 520.97 0.78 521.91 0.63C524.32 0.36 526.6 0.36 528.85 0.51C529.27 0.51 529.53 0.51 529.92 0.63C530.99 0.78 531.93 0.89 533 1.04C540.86 2.64 548.63 6.65 556.22 12.13C556.63 12.52 557.02 12.78 557.55 13.05C579.34 32.02 591.73 69.14 576.64 104.13C552.75 160.07 697.63 155.12 715.24 154.32L716.99 154.2C708.08 171.2 691.92 193.62 668.52 221.47C659.6 232.11 653.7 243.05 650.17 253.93C646.76 264.43 645.54 274.86 645.96 284.88C646.31 293.69 648.15 302.26 651.21 310.38C651.22 310.38 651.23 310.38 651.23 310.38C657.22 326.39 667.99 340.65 681.71 351.32C923.13 538.93 874.3 807.21 897.22 872.37C920.46 939.14 920.46 960.75 897.22 982.54Z" />
			<path id="&lt;Path&gt;" class="shp4" d="M742.75 965.17C724.19 978.39 707.37 989.87 692.15 999.75C673.19 1004.83 650.76 1012.3 623.52 1022.58C483.33 1100.96 341.4 1024.32 309.75 1012.57C305.88 1011.1 301.88 1010.17 297.87 1009.77C276.6 994.37 259.51 979.5 246.6 965.17C501.35 1082 599.22 1018.58 742.75 965.17Z" />
			<path id="&lt;Path&gt;" class="shp4" d="M910.72 916.7C661.84 945.01 663.84 849.14 567.84 785.06C480.79 727.11 527.52 740.06 400.68 680.65C273.84 621.23 227.11 700.01 200.4 666.63C173.7 633.25 414.03 618.16 440.74 532.71C467.44 447.26 506.43 458.47 571.32 428.83C636.07 399.19 622.72 382.37 592.01 340.98C571.63 313.38 597.13 273.55 668.52 221.48C650.89 242.31 645.02 264.47 645.95 284.9C647.02 311.07 660.91 335.24 681.6 351.26C923 538.85 874.27 807.22 897.23 872.38C903.37 890 907.91 904.55 910.72 916.7Z" />
			<path id="&lt;Path&gt;" class="shp4" d="M342.33 953.69C292.26 942.07 223.9 909.89 187.05 921.78C163.55 929.39 111.21 943.14 69.29 935.26C70.62 928.85 72.36 922.85 74.36 917.51C54.34 873.98 45.92 842.33 45.92 703.88C45.92 696.67 46.06 689.46 46.46 682.51C67.42 691.19 92.52 711.62 117.09 756.08C175.44 861.96 178.77 824.71 238.86 856.62C298.94 888.67 299.87 945.28 366.23 931.93C432.46 918.57 392.4 965.3 342.33 953.69Z" />
			<path id="&lt;Path&gt;" class="shp4" d="M375.43 284.35C385.37 280.82 386.58 261.52 379.05 226.44C367.74 173.82 371.2 133.85 391.69 152.28C412.19 170.71 413.73 176.88 413.39 209.62C413.16 231.45 418.34 259.42 428.94 293.54C452.93 335.56 453.02 375.76 429.19 414.14C393.44 471.69 369.71 452.54 392.22 414.83C414.73 377.13 367.63 306.61 375.43 284.35Z" />
			<path id="&lt;Path&gt;" class="shp4" d="M544.67 329.35C535.61 330.66 531.53 345.46 532.41 373.77C533.74 416.22 524.45 446.74 509.86 429.49C495.26 412.24 494.92 407.23 500.4 381.87C504.05 364.97 504.05 342.52 500.4 314.53C486.55 278.47 492.84 247.26 519.28 220.91C558.95 181.39 576.19 199.67 550.99 225.69C525.78 251.71 554.86 313.2 544.67 329.35Z" />
			<path id="&lt;Path&gt;" class="shp5" d="M742.22 777.06C739.94 795.62 736.09 814.44 730.75 833C730.33 834.22 730.07 835.55 729.68 836.77C726.18 848.36 715.66 855.86 704.04 855.86C701.49 855.86 698.97 855.44 696.42 854.79C688.41 852.36 682.39 846.64 679.46 839.55C677.21 834.07 676.67 827.66 678.54 821.53C681.59 811.24 683.99 801.1 685.86 791.23C689.86 771.33 691.76 752.24 692.03 734.22C692.3 714.59 690.55 696.3 687.46 679.87C683.88 659.98 678.12 642.75 671.19 629C668.52 623.93 665.85 619.24 662.92 615.12C654.64 603.09 645.16 591.88 635.4 581.06C625.12 569.85 614.29 559.18 603.77 548.48C598.28 543.02 592.8 537.54 587.46 531.93C572.64 516.84 558.77 501.37 547.68 484.68C534.34 464.63 525.26 442.87 524.32 418.18C523.78 404.57 525.65 389.86 530.87 374.12C531.4 372.37 531.93 370.77 532.32 369.05C534.34 362.23 535.94 355.15 537.66 347.83C539.26 340.86 540.89 333.8 542.87 326.57C543.14 325.62 543.44 324.67 543.7 323.69C535.23 323.96 526.57 324.08 517.85 324.08C510.38 324.08 502.76 323.93 495.14 323.81C475.52 323.4 455.77 322.33 436.53 320.88C418.5 319.54 401.01 317.67 384.32 315.39C364.58 312.87 346.28 309.67 330.25 306.17C315.36 302.85 302.53 299.09 292.36 295.11C299.89 279.28 304.54 260.87 301.28 242.4C304.16 242.61 307.03 243.29 309.82 244.5C316.37 247.29 323.84 249.84 332.26 252.09C348.69 256.78 368.31 260.4 389.66 263.06C407.3 265.47 426.12 267.07 445.22 268.25C459.24 269.2 473.38 269.73 487.4 270C505.96 270.42 524.11 270.42 541.33 269.85C563.78 269.2 584.47 267.87 601.81 265.73C626.12 263.09 643.67 258.97 650.17 253.93C646.76 264.43 645.54 274.86 645.96 284.88C646.31 293.69 648.15 302.26 651.21 310.38C648 311.3 644.62 312.16 641.1 312.99C631.61 315.24 621.14 317.08 609.88 318.62C610.14 327.55 613.94 337.72 621.02 347.8C622.36 349.81 623.81 351.83 625.41 353.81C632.23 362.23 640.77 369.97 649.72 377.98C651.18 379.19 652.66 380.53 654.11 381.86C659.86 386.93 665.61 392 671.22 397.34C673.5 399.47 675.9 401.87 678.42 404.42C686.04 412.16 694.19 421.77 700.98 433.12C706.85 442.73 711.69 453.69 714.35 465.7C714.74 467.45 715.01 469.17 715.01 470.92C715.27 483.46 706.73 494.82 694.19 497.6C692.18 498.02 690.16 498.28 688.29 498.28C678.42 498.28 669.35 492.68 664.81 483.99C663.75 482.25 662.95 480.26 662.53 478.12C662.41 477.86 662.26 477.59 662.26 477.32C660.4 469.05 656.01 460.63 648.92 451.56C644.92 446.61 640.12 441.39 634.37 435.94C630.1 431.93 625.83 427.93 621.29 424.17C620.49 423.37 619.54 422.71 618.74 421.91C607.12 411.51 594.96 400.8 584.17 387.73C583.76 387.23 583.37 386.72 582.99 386.22C582.54 387.76 582.1 389.27 581.59 390.81C581.47 391.08 581.47 391.35 581.33 391.61C576.11 408.16 576.79 422.6 582.28 436.86C587.35 449.54 596.15 462.11 608.16 475.84C617.53 486.54 628.73 498.02 641.54 510.71C643.14 512.31 644.74 513.91 646.49 515.63C658.11 527.25 670.39 539.94 682.28 553.58C690.81 563.3 699.23 573.74 706.82 584.68C710.44 589.75 713.64 595.23 716.73 600.83C726.06 617.91 733.15 637.27 737.95 658.38C742.34 677.47 744.89 698.02 745.42 719.24C745.96 738.07 745.01 757.43 742.22 777.06Z" />
			<path id="&lt;Path&gt;" class="shp6" d="M534.92 562.97L597.37 562.97L575.52 595.51C570.77 595.51 557.44 595.51 535.54 595.51C527.69 649.86 490.94 677.91 425.28 679.66L425.28 682.44L555.38 842.53L500.06 842.53L373.61 687.09L373.61 655.48C410.54 658.81 435.62 654.25 452.62 646.37C452.82 646.3 453.01 646.2 453.21 646.11C479.25 634.59 490.99 617.73 488.43 595.51L362.13 595.51L384.3 563.9C410.53 563.9 444.16 563.9 485.18 563.9C476.35 532.75 431.72 528.1 425.67 528.34C421.65 528.49 400.47 528.49 362.13 528.34L384.3 495.41L598.44 495.41L575.52 528.57C549.07 528.57 529.96 528.57 518.19 528.57C527.27 537.46 532.85 548.92 534.92 562.97Z" />
			<g id="&lt;Group&gt;">
				<g id="&lt;Group&gt;">
					<g id="&lt;Group&gt;">
						<path id="&lt;Path&gt;" class="shp7" d="M690.21 460.25C673.92 466 656.96 470.94 640.01 473.34C638.94 471.6 638.14 469.6 637.74 467.46C637.6 467.2 637.47 466.93 637.47 466.66C635.6 458.38 631.2 449.97 624.12 440.89C628.39 440.36 632.53 439.69 636.67 438.76C650.69 435.69 664.31 430.48 676.19 422.47C682.07 432.08 686.87 443.03 689.54 455.05C689.94 456.78 690.21 458.52 690.21 460.25Z" />
						<path id="&lt;Path&gt;" class="shp8" d="M690.21 460.25C690.48 472.8 681.93 484.15 669.38 486.96C667.38 487.36 665.38 487.63 663.51 487.63C653.63 487.63 644.55 482.02 640.01 473.34C656.96 470.94 673.92 466 690.21 460.25Z" />
					</g>
					<path id="&lt;Path&gt;" class="shp9" d="M676.19 422.47C664.31 430.48 650.69 435.69 636.67 438.76C632.53 439.69 628.39 440.36 624.12 440.89C620.11 435.95 615.31 430.75 609.57 425.27C605.29 421.27 601.02 417.26 596.48 413.52L598.48 413.52C618.38 412.72 638.41 406.58 653.63 393.76C661.24 401.51 669.38 411.12 676.19 422.47Z" />
					<path id="&lt;Path&gt;" class="shp8" d="M653.63 393.76C638.41 406.58 618.38 412.72 598.48 413.52L596.48 413.52C595.68 412.72 594.75 412.05 593.94 411.25C582.33 400.84 570.18 390.16 559.36 377.07C557.89 375.2 556.43 373.33 555.09 371.46C559.9 372 564.7 372.13 569.51 372.27C583.13 372.8 596.88 373.07 610.37 370.93C615.31 370.13 620.11 368.93 624.92 367.33C626.39 368.53 627.86 369.86 629.33 371.2C635.07 376.27 640.81 381.35 646.42 386.69C648.69 388.82 651.09 391.23 653.63 393.76Z" />
					<path id="&lt;Path&gt;" class="shp7" d="M624.92 367.33C620.11 368.93 615.31 370.13 610.37 370.93C596.88 373.07 583.13 372.8 569.51 372.27C564.7 372.13 559.9 372 555.09 371.46C544.94 358.11 538 343.83 534.53 329.54C536.67 330.34 538.8 331.14 541.07 331.81C554.16 335.68 567.91 336.35 581.53 337.02C586.47 337.28 591.41 337.55 596.21 337.15C597.55 339.15 599.02 341.16 600.62 343.16C607.43 351.57 615.97 359.31 624.92 367.33Z" />
					<path id="&lt;Path&gt;" class="shp9" d="M596.21 337.15C591.41 337.55 586.47 337.28 581.53 337.02C567.91 336.35 554.16 335.68 541.07 331.81C538.8 331.14 536.67 330.34 534.53 329.54C531.59 318.19 530.92 306.84 532.39 295.76C549.35 301.77 567.51 304.04 585.27 302.04L585.27 302.97C583.93 312.98 587.8 325.13 596.21 337.15Z" />
					<path id="&lt;Path&gt;" class="shp8" d="M585.27 302.04C567.51 304.04 549.35 301.77 532.39 295.76C532.39 295.63 532.39 295.63 532.39 295.49C534.53 280.94 547.88 270.66 562.57 272.8C576.99 274.8 587 287.75 585.27 302.04Z" />
				</g>
				<g id="&lt;Group&gt;">
					<g id="&lt;Group&gt;">
						<path id="&lt;Path&gt;" class="shp9" d="M705.94 822.36C705.54 823.56 705.27 824.89 704.87 826.1C701.4 837.71 690.85 845.19 679.23 845.19C676.7 845.19 674.16 844.79 671.62 844.12C663.61 841.72 657.6 835.98 654.67 828.9C663.61 828.77 672.82 827.96 681.64 826.63C689.25 825.43 697.53 824.09 705.94 822.36Z" />
					</g>
					<path id="&lt;Path&gt;" class="shp7" d="M576.02 311.52C572.42 319.53 569.88 328.34 567.48 337.69C549.99 336.62 529.96 326.21 519.28 317.13C518.88 316.73 518.48 316.46 518.08 315.93C520.48 306.98 523.42 298.03 527.69 288.95C533.83 275.6 549.72 269.86 563.07 276C576.56 282.28 582.3 298.17 576.02 311.52Z" />
					<path id="&lt;Path&gt;" class="shp8" d="M567.48 337.69C566.68 341.43 565.74 345.17 564.94 348.9C562.67 359.05 560.27 369.47 556.8 380.15C556.66 380.41 556.66 380.68 556.53 380.95C539.71 378.14 523.55 371.2 510.07 360.52C509.27 359.85 508.33 359.19 507.53 358.38C509.53 351.57 511.13 344.5 512.87 337.16C514.47 330.21 516.07 323.14 518.08 315.93C518.48 316.46 518.88 316.73 519.28 317.13C529.96 326.21 549.99 336.62 567.48 337.69Z" />
					<path id="&lt;Path&gt;" class="shp9" d="M557.47 426.21C538.77 424.88 520.35 420.07 504.06 410.32C502.59 409.39 500.99 408.45 499.52 407.52C498.98 393.9 500.85 379.21 506.06 363.46C506.6 361.72 507.13 360.12 507.53 358.38C508.33 359.19 509.27 359.85 510.07 360.52C523.55 371.2 539.71 378.14 556.53 380.95C551.32 397.5 551.99 411.92 557.47 426.21Z" />
					<path id="&lt;Path&gt;" class="shp7" d="M583.37 465.2C575.09 466.53 566.54 467.2 560 468.4C547.72 470.67 535.3 472.54 522.88 474.01C509.53 453.98 500.45 432.22 499.52 407.52C500.99 408.45 502.59 409.39 504.06 410.32C520.35 420.07 538.77 424.88 557.47 426.21C562.54 438.9 571.35 451.45 583.37 465.2Z" />
					<path id="&lt;Path&gt;" class="shp8" d="M621.69 504.99C607.53 513 588.17 515.93 573.35 519.14C569.75 519.94 566.28 520.61 562.67 521.28C547.85 506.19 533.97 490.7 522.88 474.01C535.3 472.54 547.72 470.67 560 468.4C566.54 467.2 575.09 466.53 583.37 465.2C592.71 475.88 603.93 487.36 616.75 500.05C618.35 501.65 619.95 503.25 621.69 504.99Z" />
					<path id="&lt;Path&gt;" class="shp9" d="M657.47 542.91C657.34 543.04 657.2 543.31 657.07 543.44C645.45 557.46 628.5 566.67 610.61 570.41C600.32 559.19 589.51 548.51 578.96 537.83C573.49 532.36 568.01 526.88 562.67 521.28C566.28 520.61 569.75 519.94 573.35 519.14C588.17 515.93 607.53 513 621.69 504.99C633.3 516.6 645.59 529.29 657.47 542.91Z" />
					<path id="&lt;Path&gt;" class="shp7" d="M691.92 590.17C686.04 597.65 678.43 604.19 668.95 609.53C661.88 613.54 654.27 616.47 646.39 618.34C643.72 613.27 641.05 608.6 638.11 604.46C629.83 592.44 620.35 581.22 610.61 570.41C628.5 566.67 645.45 557.46 657.07 543.44C657.2 543.31 657.34 543.04 657.47 542.91C666.02 552.65 674.43 563.07 682.04 574.02C685.64 579.09 688.85 584.56 691.92 590.17Z" />
					<path id="&lt;Path&gt;" class="shp8" d="M713.15 647.72C703 655.86 691.52 662.27 678.97 665.88C673.63 667.34 668.15 668.41 662.68 669.21C659.07 649.32 653.33 632.09 646.39 618.34C654.27 616.47 661.88 613.54 668.95 609.53C678.43 604.19 686.04 597.65 691.92 590.17C701.26 607.26 708.34 626.62 713.15 647.72Z" />
					<path id="&lt;Path&gt;" class="shp9" d="M720.62 708.6C703.8 716.48 685.64 721.55 667.22 723.56C667.48 703.93 665.75 685.64 662.68 669.21C668.15 668.41 673.63 667.34 678.97 665.88C691.52 662.27 703 655.86 713.15 647.72C717.55 666.81 720.09 687.37 720.62 708.6Z" />
					<path id="&lt;Path&gt;" class="shp7" d="M720.62 708.6C721.16 727.43 720.22 746.79 717.42 766.41C707.81 769.22 698.59 771.35 691.52 773.36C681.5 776.16 671.36 778.7 661.08 780.57C665.08 760.67 666.95 741.58 667.22 723.56C685.64 721.55 703.8 716.48 720.62 708.6Z" />
					<path id="&lt;Path&gt;" class="shp8" d="M717.42 766.41C715.15 784.97 711.28 803.8 705.94 822.36C697.53 824.09 689.25 825.43 681.64 826.63C672.82 827.96 663.61 828.77 654.67 828.9C652.4 823.43 651.86 817.02 653.73 810.88C656.8 800.59 659.21 790.45 661.08 780.57C671.36 778.7 681.5 776.16 691.52 773.36C698.59 771.35 707.81 769.22 717.42 766.41Z" />
				</g>
				<g id="&lt;Group&gt;">
					<g id="&lt;Group&gt;">
						<path id="&lt;Path&gt;" class="shp8" d="M668.49 268.56C667.42 274.7 664.22 280.44 659.01 284.71C649.8 292.19 635.11 297.93 616.28 302.34C618.55 299.13 620.15 295.53 621.89 291.92C630.04 274.16 638.45 256.14 643.65 237.45C651 237.71 657.94 241.05 663.01 247.19C664.75 249.33 666.08 251.6 666.89 254C668.89 258.68 669.42 263.75 668.49 268.56Z" />
					</g>
					<path id="&lt;Path&gt;" class="shp7" d="M307.46 241.45C301.18 246.53 294.24 251.2 287.3 255.34C276.08 262.02 263.93 268.02 251.38 271.49C247.37 264.55 246.57 255.74 250.04 247.86C250.71 246.26 251.51 244.79 252.58 243.32C259.52 233.04 273.14 228.64 285.03 233.84C291.57 236.65 299.05 239.18 307.46 241.45Z" />
					<path id="&lt;Path&gt;" class="shp8" d="M364.87 252.4C346.04 268.16 326.15 282.58 305.45 295.53C288.76 291.79 274.61 287.52 263.93 282.98C258.59 280.71 254.45 276.84 251.78 272.16C251.65 271.9 251.51 271.76 251.38 271.49C263.93 268.02 276.08 262.02 287.3 255.34C294.24 251.2 301.18 246.53 307.46 241.45C323.88 246.13 343.51 249.73 364.87 252.4Z" />
					<path id="&lt;Path&gt;" class="shp9" d="M420.41 257.61C418.68 259.61 416.67 261.61 414.67 263.35C397.58 278.7 378.76 291.92 359.53 304.74C339.77 302.2 321.48 299 305.45 295.53C326.15 282.58 346.04 268.16 364.87 252.4C382.49 254.8 401.32 256.41 420.41 257.61Z" />
					<path id="&lt;Path&gt;" class="shp7" d="M462.6 259.34C453.13 273.9 440.97 286.72 427.62 297.93C422.42 302.2 417.21 306.34 411.73 310.21C393.71 308.88 376.22 307.01 359.53 304.74C378.76 291.92 397.58 278.7 414.67 263.35C416.67 261.61 418.68 259.61 420.41 257.61C434.43 258.54 448.58 259.08 462.6 259.34Z" />
					<path id="&lt;Path&gt;" class="shp8" d="M516.55 259.21C514.41 264.55 511.2 269.49 507.87 274.3C497.45 289.12 484.77 302.34 470.35 313.15C450.72 312.75 430.96 311.68 411.73 310.21C417.21 306.34 422.42 302.2 427.62 297.93C440.97 286.72 453.13 273.9 462.6 259.34C481.16 259.75 499.32 259.75 516.55 259.21Z" />
					<path id="&lt;Path&gt;" class="shp9" d="M577.03 255.07C576.23 260.95 575.43 266.82 573.69 272.3C570.49 282.18 564.48 290.85 557.8 298.73C554.06 303.41 550.06 307.81 545.79 311.82C528.96 312.89 511.2 313.42 493.05 313.42C485.57 313.42 477.96 313.29 470.35 313.15C484.77 302.34 497.45 289.12 507.87 274.3C511.2 269.49 514.41 264.55 516.55 259.21C538.98 258.54 559.67 257.21 577.03 255.07Z" />
					<path id="&lt;Path&gt;" class="shp7" d="M643.65 237.45C638.45 256.14 630.04 274.16 621.89 291.92C620.15 295.53 618.55 299.13 616.28 302.34C596.52 307.01 572.36 310.08 545.79 311.82C550.06 307.81 554.06 303.41 557.8 298.73C564.48 290.85 570.49 282.18 573.69 272.3C575.43 266.82 576.23 260.95 577.03 255.07C601.46 252.4 619.09 248.26 625.5 243.19C630.84 238.92 637.38 236.91 643.65 237.45Z" />
				</g>
			</g>
		</g>
		<g id="&lt;Group&gt;">
			<g id="&lt;Group&gt;">
				<path id="&lt;Path&gt;" class="shp10" d="M827.18 943.42C832.69 944.74 838.3 945.66 844.12 946.17C839.93 946.58 835.65 946.78 831.36 946.78C829.93 946.78 828.61 946.78 827.18 946.68C754.52 944.54 696.15 884.84 696.15 811.58C696.15 738.41 754.51 678.34 827.16 676.2C843.08 676.04 852.43 676.1 855.22 676.37C849.4 676.88 832.69 678.41 827.18 679.74C766.87 693.21 721.66 747.19 721.66 811.58C721.66 876.07 766.87 929.95 827.18 943.42Z" />
				<path id="&lt;Path&gt;" class="shp11" d="M992.08 811.58C992.08 885.46 932.89 945.46 859.32 946.68C858.5 946.78 857.69 946.78 856.87 946.78C852.58 946.78 848.3 946.58 844.12 946.17C838.3 945.66 832.69 944.74 827.18 943.42C766.87 929.95 721.66 876.07 721.66 811.58C721.66 747.19 766.87 693.21 827.18 679.74C832.69 678.41 838.3 677.49 844.12 676.98C848.3 676.57 852.58 676.37 856.87 676.37C857.69 676.37 858.5 676.37 859.32 676.47C932.89 677.7 992.08 737.8 992.08 811.58Z" />
				<g id="&lt;Group&gt;">
					<path id="&lt;Compound Path&gt;" fill-rule="evenodd" class="shp12" d="M863.46 690.5C928.18 691.6 980.25 745.46 980.25 811.58C980.25 877.78 928.18 931.55 863.46 932.65C862.74 932.74 862.03 932.74 861.31 932.74C857.54 932.74 853.77 932.56 850.09 932.19C844.97 931.73 840.03 930.91 835.18 929.72C782.13 917.65 742.36 869.37 742.36 811.58C742.36 753.87 782.13 705.5 835.18 693.43C840.03 692.24 844.97 691.42 850.09 690.96C853.77 690.59 857.54 690.41 861.31 690.41C862.03 690.41 862.74 690.41 863.46 690.5ZM850.81 698.2C845.99 698.64 841.47 699.38 836.92 700.5L836.86 700.51L836.8 700.53C812.5 706.06 790.4 720.05 774.57 739.93C758.5 760.12 749.64 785.56 749.64 811.58C749.64 837.62 758.5 863.08 774.57 883.26C790.39 903.11 812.49 917.09 836.8 922.63L836.86 922.64L836.92 922.65C841.47 923.77 845.99 924.52 850.73 924.94C854.23 925.29 857.76 925.46 861.31 925.46C861.79 925.46 862.28 925.46 862.55 925.43L862.94 925.38L863.34 925.37C892.72 924.87 920.26 912.83 940.89 891.47C961.58 870.05 972.97 841.68 972.97 811.58C972.97 781.51 961.58 753.15 940.89 731.71C920.25 710.33 892.71 698.28 863.34 697.78L862.94 697.77L862.54 697.72C862.28 697.69 861.79 697.69 861.31 697.69C857.76 697.69 854.23 697.86 850.81 698.2Z" />
				</g>
				<path id="&lt;Path&gt;" class="shp13" d="M882.03 765.82L910.8 765.82L900.73 782.87C898.55 782.87 892.41 782.87 882.32 782.87C878.7 811.35 861.78 826.05 831.53 826.96L831.53 828.42L891.46 912.31L865.98 912.31L807.73 830.86L807.73 814.3C824.74 816.04 836.3 813.65 844.13 809.52C844.22 809.48 844.31 809.43 844.4 809.39C856.39 803.35 861.8 794.51 860.62 782.87L802.45 782.87L812.66 766.31C824.74 766.31 840.23 766.31 859.12 766.31C855.05 749.99 834.5 747.55 831.71 747.68C829.86 747.75 820.1 747.75 802.45 747.68L812.66 730.42L911.29 730.42L900.73 747.79C888.55 747.79 879.75 747.79 874.33 747.79C878.51 752.45 881.08 758.46 882.03 765.82Z" />
				<path id="&lt;Path&gt;" class="shp14" d="M892.14 759.52L920.9 759.52L910.84 776.57C908.65 776.57 902.51 776.57 892.42 776.57C888.81 805.05 871.88 819.75 841.64 820.66L841.64 822.12L901.56 906.01L876.08 906.01L817.84 824.56L817.84 807.99C834.85 809.74 846.4 807.35 854.23 803.22C854.32 803.18 854.41 803.13 854.5 803.08C866.5 797.05 871.9 788.21 870.73 776.57L812.55 776.57L822.76 760.01C834.84 760.01 850.33 760.01 869.23 760.01C865.16 743.68 844.6 741.25 841.82 741.38C839.96 741.45 830.21 741.45 812.55 741.38L822.76 724.12L921.4 724.12L910.84 741.49C898.66 741.49 889.86 741.49 884.43 741.49C888.62 746.15 891.19 752.16 892.14 759.52Z" />
				<g id="&lt;Group&gt;" style="opacity: 0.302;mix-blend-mode: multiply">
					<path id="&lt;Path&gt;" class="shp10" d="M722.51 796.28C722.21 798.78 722 801.28 721.87 803.81L696.37 803.81C696.49 801.28 696.71 798.76 697 796.28L722.51 796.28Z" />
					<path id="&lt;Path&gt;" class="shp10" d="M725.03 781.26C724.45 783.74 723.96 786.26 723.52 788.79L698.05 788.79C698.46 786.26 698.94 783.74 699.53 781.26L725.03 781.26Z" />
					<path id="&lt;Path&gt;" class="shp10" d="M729.37 766.24C728.5 768.69 727.7 771.19 726.97 773.74L701.47 773.74C702.2 771.22 703 768.69 703.87 766.24L729.37 766.24Z" />
					<path id="&lt;Path&gt;" class="shp10" d="M735.75 751.22C734.54 753.67 733.38 756.17 732.31 758.72L706.81 758.72C707.87 756.17 709.01 753.67 710.23 751.22L735.75 751.22Z" />
					<path id="&lt;Path&gt;" class="shp10" d="M744.49 736.2C742.84 738.65 741.29 741.15 739.81 743.7L714.3 743.7C715.76 741.15 717.34 738.65 718.99 736.2L744.49 736.2Z" />
					<path id="&lt;Path&gt;" class="shp10" d="M756.21 721.16C754 723.59 751.91 726.11 749.9 728.68L724.4 728.68C726.39 726.08 728.47 723.59 730.66 721.16L756.21 721.16Z" />
					<path id="&lt;Path&gt;" class="shp10" d="M772.01 706.14C769.05 708.52 766.21 711.02 763.46 713.66L737.91 713.66C740.66 711.04 743.49 708.54 746.46 706.14L772.01 706.14Z" />
					<path id="&lt;Path&gt;" class="shp10" d="M795.03 691.12C790.62 693.4 786.35 695.9 782.22 698.64L756.7 698.64C760.8 695.9 765.04 693.4 769.46 691.12L795.03 691.12Z" />
					<path id="&lt;Path&gt;" class="shp10" d="M854.8 676.36C842.31 676.67 834.93 678.2 828.64 679.41C828.16 679.49 827.67 679.61 827.19 679.73C822.21 680.84 817.34 682.23 812.58 683.88L786.93 683.88C799.6 679.46 813.12 676.87 827.19 676.45L827.19 676.36L831.39 676.36C835.66 676.36 850.6 675.94 854.8 676.36Z" />
					<path id="&lt;Path&gt;" class="shp10" d="M721.87 818.83L696.37 818.83C696.23 816.35 696.15 813.83 696.15 811.3L721.66 811.3C721.66 813.83 721.73 816.33 721.87 818.83Z" />
					<path id="&lt;Path&gt;" class="shp10" d="M723.52 833.85L698.05 833.85C697.61 831.37 697.27 828.85 697 826.32L722.51 826.32C722.77 828.85 723.11 831.37 723.52 833.85Z" />
					<path id="&lt;Path&gt;" class="shp10" d="M726.95 848.87L701.47 848.87C700.72 846.39 700.09 843.87 699.5 841.34L725.03 841.34C725.59 843.89 726.24 846.39 726.95 848.87Z" />
					<path id="&lt;Path&gt;" class="shp10" d="M732.28 863.89L706.76 863.89C705.71 861.43 704.77 858.94 703.87 856.39L729.37 856.39C730.27 858.94 731.24 861.41 732.28 863.89Z" />
					<path id="&lt;Path&gt;" class="shp10" d="M739.78 878.91L714.28 878.91C712.82 876.45 711.49 873.95 710.23 871.41L735.75 871.41C737.02 873.95 738.35 876.45 739.78 878.91Z" />
					<path id="&lt;Path&gt;" class="shp10" d="M749.85 893.93L724.35 893.93C722.46 891.5 720.66 889 718.96 886.43L744.49 886.43C746.19 889 747.98 891.5 749.85 893.93Z" />
					<path id="&lt;Path&gt;" class="shp10" d="M763.42 908.95L737.87 908.95C735.34 906.54 732.94 904.04 730.61 901.45L756.16 901.45C758.47 904.04 760.89 906.54 763.42 908.95Z" />
					<path id="&lt;Path&gt;" class="shp10" d="M782.22 923.99L756.65 923.99C753.1 921.64 749.68 919.14 746.41 916.47L771.98 916.47C775.28 919.14 778.68 921.66 782.22 923.99Z" />
					<path id="&lt;Path&gt;" class="shp10" d="M812.55 939.01L786.9 939.01C780.84 936.92 774.99 934.4 769.39 931.49L794.98 931.49C800.61 934.4 806.49 936.92 812.55 939.01Z" />
					<path id="&lt;Path&gt;" class="shp10" d="M854.19 676.15C848.44 676.66 834.9 677.94 828.62 679.16C833.66 677.97 838.81 677.17 844.1 676.71C847.42 676.39 850.79 676.2 854.19 676.15Z" />
					<path id="&lt;Path&gt;" class="shp10" d="M855.22 676.37C854.37 676.37 840.01 676.37 827.18 679.74C822.25 681.03 817.31 681.97 812.55 683.62L786.9 683.62C799.57 679.21 813.09 676.61 827.16 676.2L827.16 676.1L855.22 676.37Z" />
					<path id="&lt;Path&gt;" class="shp10" d="M795.03 691.12C790.62 693.4 786.35 695.9 782.22 698.64L756.7 698.64C760.8 695.9 765.04 693.4 769.46 691.12L795.03 691.12Z" />
					<path id="&lt;Path&gt;" class="shp10" d="M772.01 706.14C769.05 708.52 766.21 711.02 763.46 713.66L737.91 713.66C740.66 711.04 743.49 708.54 746.46 706.14L772.01 706.14Z" />
					<path id="&lt;Path&gt;" class="shp10" d="M756.21 721.16C754 723.59 751.91 726.11 749.9 728.68L724.4 728.68C726.39 726.08 728.47 723.59 730.66 721.16L756.21 721.16Z" />
					<path id="&lt;Path&gt;" class="shp10" d="M744.49 736.2C742.84 738.65 741.29 741.15 739.81 743.7L714.3 743.7C715.76 741.15 717.34 738.65 718.99 736.2L744.49 736.2Z" />
					<path id="&lt;Path&gt;" class="shp10" d="M735.75 751.22C734.54 753.67 733.38 756.17 732.31 758.72L706.81 758.72C707.87 756.17 709.01 753.67 710.23 751.22L735.75 751.22Z" />
					<path id="&lt;Path&gt;" class="shp10" d="M729.37 766.24C728.5 768.69 727.7 771.19 726.97 773.74L701.47 773.74C702.2 771.22 703 768.69 703.87 766.24L729.37 766.24Z" />
					<path id="&lt;Path&gt;" class="shp10" d="M725.03 781.26C724.45 783.74 723.96 786.26 723.52 788.79L698.05 788.79C698.46 786.26 698.94 783.74 699.53 781.26L725.03 781.26Z" />
					<path id="&lt;Path&gt;" class="shp10" d="M722.51 796.28C722.21 798.78 722 801.28 721.87 803.81L696.37 803.81C696.49 801.28 696.71 798.76 697 796.28L722.51 796.28Z" />
					<path id="&lt;Path&gt;" class="shp10" d="M721.87 818.83L696.37 818.83C696.23 816.35 696.15 813.83 696.15 811.3L721.66 811.3C721.66 813.83 721.73 816.33 721.87 818.83Z" />
					<path id="&lt;Path&gt;" class="shp10" d="M723.52 833.85L698.05 833.85C697.61 831.37 697.27 828.85 697 826.32L722.51 826.32C722.77 828.85 723.11 831.37 723.52 833.85Z" />
					<path id="&lt;Path&gt;" class="shp10" d="M726.95 848.87L701.47 848.87C700.72 846.39 700.09 843.87 699.5 841.34L725.03 841.34C725.59 843.89 726.24 846.39 726.95 848.87Z" />
					<path id="&lt;Path&gt;" class="shp10" d="M732.28 863.89L706.76 863.89C705.71 861.43 704.77 858.94 703.87 856.39L729.37 856.39C730.27 858.94 731.24 861.41 732.28 863.89Z" />
					<path id="&lt;Path&gt;" class="shp10" d="M739.78 878.91L714.28 878.91C712.82 876.45 711.49 873.95 710.23 871.41L735.75 871.41C737.02 873.95 738.35 876.45 739.78 878.91Z" />
					<path id="&lt;Path&gt;" class="shp10" d="M749.85 893.93L724.35 893.93C722.46 891.5 720.66 889 718.96 886.43L744.49 886.43C746.19 889 747.98 891.5 749.85 893.93Z" />
					<path id="&lt;Path&gt;" class="shp10" d="M763.42 908.95L737.87 908.95C735.34 906.54 732.94 904.04 730.61 901.45L756.16 901.45C758.47 904.04 760.89 906.54 763.42 908.95Z" />
					<path id="&lt;Path&gt;" class="shp10" d="M782.22 923.99L756.65 923.99C753.1 921.64 749.68 919.14 746.41 916.47L771.98 916.47C775.28 919.14 778.68 921.66 782.22 923.99Z" />
					<path id="&lt;Path&gt;" class="shp10" d="M812.55 939.01L786.9 939.01C780.84 936.92 774.99 934.4 769.39 931.49L794.98 931.49C800.61 934.4 806.49 936.92 812.55 939.01Z" />
				</g>
			</g>
			<g id="&lt;Group&gt;">
				<path id="&lt;Path&gt;" class="shp11" d="M951.94 1019.8C951.94 1022.93 868.92 1025.32 766.38 1025.32C663.98 1025.32 580.96 1022.93 580.96 1019.8C580.96 1016.67 663.98 1014.14 766.38 1014.14C868.92 1014.14 951.94 1016.67 951.94 1019.8Z" />
				<path id="&lt;Path&gt;" class="shp15" d="M920.9 1020.29C920.9 1022.01 851.77 1023.33 766.39 1023.33C681.13 1023.33 612 1022.01 612 1020.29C612 1018.57 681.13 1017.17 766.39 1017.17C851.77 1017.17 920.9 1018.57 920.9 1020.29Z" />
				<path id="&lt;Path&gt;" class="shp10" d="M951.94 1019.8L951.94 1055.13C951.94 1058.26 868.92 1060.79 766.38 1060.79C663.98 1060.79 580.96 1058.26 580.96 1055.13L580.96 1019.8C580.96 1022.93 663.98 1025.32 766.38 1025.32C868.92 1025.32 951.94 1022.93 951.94 1019.8Z" />
				<g id="&lt;Group&gt;" style="opacity: 0.302;mix-blend-mode: multiply">
					<path id="&lt;Path&gt;" class="shp10" d="M591.86 1021.69L591.86 1057.06C584.8 1056.46 580.94 1055.82 580.94 1055.15L580.94 1019.81C580.94 1020.48 584.8 1021.12 591.86 1021.69Z" />
					<path id="&lt;Path&gt;" class="shp10" d="M602.77 1022.43C606.07 1022.61 609.72 1022.79 613.69 1022.97L613.69 1058.34C609.72 1058.2 606.07 1058.02 602.77 1057.81L602.77 1022.43Z" />
					<path id="&lt;Path&gt;" class="shp10" d="M624.61 1023.36C628.05 1023.5 631.7 1023.64 635.52 1023.71L635.52 1059.15C631.7 1059.01 628.05 1058.91 624.61 1058.8L624.61 1023.36Z" />
					<path id="&lt;Path&gt;" class="shp10" d="M646.44 1024.03C649.95 1024.1 653.6 1024.17 657.32 1024.28L657.32 1059.72C653.6 1059.65 649.95 1059.54 646.44 1059.47L646.44 1024.03Z" />
					<path id="&lt;Path&gt;" class="shp10" d="M668.24 1024.49C671.78 1024.56 675.43 1024.6 679.15 1024.67L679.15 1060.15C675.43 1060.07 671.78 1060 668.24 1059.93L668.24 1024.49Z" />
					<path id="&lt;Path&gt;" class="shp10" d="M690.07 1024.84C693.65 1024.88 697.3 1024.92 700.99 1024.95L700.99 1060.43C697.3 1060.39 693.65 1060.32 690.07 1060.29L690.07 1024.84Z" />
					<path id="&lt;Path&gt;" class="shp10" d="M711.9 1025.06C715.48 1025.09 719.13 1025.13 722.82 1025.16L722.82 1060.64C719.13 1060.61 715.48 1060.57 711.9 1060.54L711.9 1025.06Z" />
					<path id="&lt;Path&gt;" class="shp10" d="M733.7 1025.23C737.28 1025.23 740.93 1025.27 744.62 1025.27L744.62 1060.75C740.93 1060.75 737.28 1060.71 733.7 1060.68L733.7 1025.23Z" />
					<path id="&lt;Path&gt;" class="shp10" d="M766.38 1025.3C766.42 1025.3 766.42 1025.3 766.45 1025.3L766.45 1060.78C766.42 1060.78 766.42 1060.78 766.38 1060.78C762.73 1060.78 759.11 1060.78 755.53 1060.75L755.53 1025.27C759.11 1025.3 762.73 1025.3 766.38 1025.3Z" />
					<path id="&lt;Path&gt;" class="shp10" d="M777.37 1025.3C781.05 1025.3 784.67 1025.27 788.28 1025.27L788.28 1060.75C784.67 1060.75 781.05 1060.78 777.37 1060.78L777.37 1025.3Z" />
					<path id="&lt;Path&gt;" class="shp10" d="M799.2 1025.23C802.89 1025.2 806.5 1025.16 810.08 1025.16L810.08 1060.64C806.5 1060.64 802.89 1060.68 799.2 1060.71L799.2 1025.23Z" />
					<path id="&lt;Path&gt;" class="shp10" d="M821 1025.06C824.68 1025.02 828.33 1024.99 831.91 1024.95L831.91 1060.43C828.33 1060.46 824.68 1060.5 821 1060.54L821 1025.06Z" />
					<path id="&lt;Path&gt;" class="shp10" d="M842.83 1024.84C846.55 1024.77 850.2 1024.74 853.75 1024.67L853.75 1060.15C850.2 1060.18 846.55 1060.25 842.83 1060.29L842.83 1024.84Z" />
					<path id="&lt;Path&gt;" class="shp10" d="M864.66 1024.49C868.39 1024.42 872.04 1024.35 875.58 1024.28L875.58 1059.72C872.04 1059.79 868.39 1059.86 864.66 1059.93L864.66 1024.49Z" />
					<path id="&lt;Path&gt;" class="shp10" d="M886.46 1024.03C890.25 1023.92 893.87 1023.82 897.38 1023.71L897.38 1059.15C893.87 1059.26 890.25 1059.37 886.46 1059.47L886.46 1024.03Z" />
					<path id="&lt;Path&gt;" class="shp10" d="M908.29 1023.36C912.16 1023.25 915.81 1023.11 919.21 1022.97L919.21 1058.34C915.81 1058.52 912.16 1058.66 908.29 1058.8L908.29 1023.36Z" />
					<path id="&lt;Path&gt;" class="shp10" d="M941.04 1021.69L941.04 1057.06C938 1057.31 934.35 1057.56 930.13 1057.81L930.13 1022.43C934.35 1022.22 938 1021.97 941.04 1021.69Z" />
					<path id="&lt;Path&gt;" class="shp10" d="M591.86 1021.69L591.86 1057.06C584.8 1056.46 580.94 1055.82 580.94 1055.15L580.94 1019.81C580.94 1020.48 584.8 1021.12 591.86 1021.69Z" />
					<path id="&lt;Path&gt;" class="shp10" d="M613.69 1022.97L613.69 1058.34C609.72 1058.2 606.07 1058.02 602.77 1057.81L602.77 1022.43C606.07 1022.61 609.72 1022.79 613.69 1022.97Z" />
					<path id="&lt;Path&gt;" class="shp10" d="M635.52 1023.71L635.52 1059.15C631.7 1059.01 628.05 1058.91 624.61 1058.8L624.61 1023.36C628.05 1023.5 631.7 1023.64 635.52 1023.71Z" />
					<path id="&lt;Path&gt;" class="shp10" d="M657.32 1024.28L657.32 1059.72C653.6 1059.65 649.95 1059.54 646.44 1059.47L646.44 1024.03C649.95 1024.1 653.6 1024.17 657.32 1024.28Z" />
					<path id="&lt;Path&gt;" class="shp10" d="M679.15 1024.67L679.15 1060.15C675.43 1060.07 671.78 1060 668.24 1059.93L668.24 1024.49C671.78 1024.56 675.43 1024.6 679.15 1024.67Z" />
					<path id="&lt;Path&gt;" class="shp10" d="M700.99 1024.95L700.99 1060.43C697.3 1060.39 693.65 1060.32 690.07 1060.29L690.07 1024.84C693.65 1024.88 697.3 1024.92 700.99 1024.95Z" />
					<path id="&lt;Path&gt;" class="shp10" d="M722.82 1025.16L722.82 1060.64C719.13 1060.61 715.48 1060.57 711.9 1060.54L711.9 1025.06C715.48 1025.09 719.13 1025.13 722.82 1025.16Z" />
					<path id="&lt;Path&gt;" class="shp10" d="M744.62 1025.27L744.62 1060.75C740.93 1060.75 737.28 1060.71 733.7 1060.68L733.7 1025.23C737.28 1025.23 740.93 1025.27 744.62 1025.27Z" />
					<path id="&lt;Path&gt;" class="shp10" d="M766.45 1025.3L766.45 1060.78C766.42 1060.78 766.42 1060.78 766.38 1060.78C762.73 1060.78 759.11 1060.78 755.53 1060.75L755.53 1025.27C759.11 1025.3 762.73 1025.3 766.38 1025.3C766.42 1025.3 766.42 1025.3 766.45 1025.3Z" />
					<path id="&lt;Path&gt;" class="shp10" d="M788.28 1025.27L788.28 1060.75C784.67 1060.75 781.05 1060.78 777.37 1060.78L777.37 1025.3C781.05 1025.3 784.67 1025.27 788.28 1025.27Z" />
					<path id="&lt;Path&gt;" class="shp10" d="M810.08 1025.16L810.08 1060.64C806.5 1060.64 802.89 1060.68 799.2 1060.71L799.2 1025.23C802.89 1025.2 806.5 1025.16 810.08 1025.16Z" />
					<path id="&lt;Path&gt;" class="shp10" d="M831.91 1024.95L831.91 1060.43C828.33 1060.46 824.68 1060.5 821 1060.54L821 1025.06C824.68 1025.02 828.33 1024.99 831.91 1024.95Z" />
					<path id="&lt;Path&gt;" class="shp10" d="M853.75 1024.67L853.75 1060.15C850.2 1060.18 846.55 1060.25 842.83 1060.29L842.83 1024.84C846.55 1024.77 850.2 1024.74 853.75 1024.67Z" />
					<path id="&lt;Path&gt;" class="shp10" d="M875.58 1024.28L875.58 1059.72C872.04 1059.79 868.39 1059.86 864.66 1059.93L864.66 1024.49C868.39 1024.42 872.04 1024.35 875.58 1024.28Z" />
					<path id="&lt;Path&gt;" class="shp10" d="M897.38 1023.71L897.38 1059.15C893.87 1059.26 890.25 1059.37 886.46 1059.47L886.46 1024.03C890.25 1023.92 893.87 1023.82 897.38 1023.71Z" />
					<path id="&lt;Path&gt;" class="shp10" d="M919.21 1022.97L919.21 1058.34C915.81 1058.52 912.16 1058.66 908.29 1058.8L908.29 1023.36C912.16 1023.25 915.81 1023.11 919.21 1022.97Z" />
					<path id="&lt;Path&gt;" class="shp10" d="M941.04 1021.69L941.04 1057.06C938 1057.31 934.35 1057.56 930.13 1057.81L930.13 1022.43C934.35 1022.22 938 1021.97 941.04 1021.69Z" />
				</g>
			</g>
			<g id="&lt;Group&gt;">
				<path id="&lt;Path&gt;" class="shp16" d="M984.66 983C984.66 986.13 901.64 988.51 799.09 988.51C696.69 988.51 613.67 986.13 613.67 983C613.67 979.87 696.69 977.33 799.09 977.33C901.64 977.33 984.66 979.87 984.66 983Z" />
				<path id="&lt;Path&gt;" class="shp17" d="M984.66 983L984.66 1018.32C984.66 1021.45 901.64 1023.99 799.09 1023.99C696.69 1023.99 613.67 1021.45 613.67 1018.32L613.67 983C613.67 986.13 696.69 988.51 799.09 988.51C901.64 988.51 984.66 986.13 984.66 983Z" />
				<g id="&lt;Group&gt;" style="opacity: 0.302;mix-blend-mode: multiply">
					<path id="&lt;Path&gt;" class="shp17" d="M624.57 984.89L624.57 1020.26C617.52 1019.66 613.66 1019.02 613.66 1018.34L613.66 983.01C613.66 983.68 617.52 984.32 624.57 984.89Z" />
					<path id="&lt;Path&gt;" class="shp17" d="M635.49 985.63C638.78 985.81 642.43 985.98 646.4 986.16L646.4 1021.53C642.43 1021.39 638.78 1021.22 635.49 1021L635.49 985.63Z" />
					<path id="&lt;Path&gt;" class="shp17" d="M657.32 986.55C660.76 986.69 664.41 986.84 668.24 986.91L668.24 1022.35C664.41 1022.21 660.76 1022.1 657.32 1021.99L657.32 986.55Z" />
					<path id="&lt;Path&gt;" class="shp17" d="M679.15 987.22C682.66 987.3 686.31 987.37 690.04 987.47L690.04 1022.92C686.31 1022.85 682.66 1022.74 679.15 1022.67L679.15 987.22Z" />
					<path id="&lt;Path&gt;" class="shp17" d="M700.95 987.69C704.5 987.76 708.15 987.79 711.87 987.86L711.87 1023.34C708.15 1023.27 704.5 1023.2 700.95 1023.13L700.95 987.69Z" />
					<path id="&lt;Path&gt;" class="shp17" d="M722.78 988.04C726.36 988.08 730.02 988.11 733.7 988.15L733.7 1023.63C730.02 1023.59 726.36 1023.52 722.78 1023.48L722.78 988.04Z" />
					<path id="&lt;Path&gt;" class="shp17" d="M744.62 988.25C748.2 988.29 751.85 988.32 755.53 988.36L755.53 1023.84C751.85 1023.8 748.2 1023.77 744.62 1023.73L744.62 988.25Z" />
					<path id="&lt;Path&gt;" class="shp17" d="M766.42 988.43C769.99 988.43 773.65 988.47 777.33 988.47L777.33 1023.94C773.65 1023.94 769.99 1023.91 766.42 1023.87L766.42 988.43Z" />
					<path id="&lt;Path&gt;" class="shp17" d="M799.09 988.5C799.13 988.5 799.13 988.5 799.16 988.5L799.16 1023.98C799.13 1023.98 799.13 1023.98 799.09 1023.98C795.44 1023.98 791.83 1023.98 788.25 1023.94L788.25 988.47C791.83 988.5 795.44 988.5 799.09 988.5Z" />
					<path id="&lt;Path&gt;" class="shp17" d="M810.08 988.5C813.77 988.5 817.38 988.47 821 988.47L821 1023.94C817.38 1023.94 813.77 1023.98 810.08 1023.98L810.08 988.5Z" />
					<path id="&lt;Path&gt;" class="shp17" d="M831.91 988.43C835.6 988.39 839.22 988.36 842.8 988.36L842.8 1023.84C839.22 1023.84 835.6 1023.87 831.91 1023.91L831.91 988.43Z" />
					<path id="&lt;Path&gt;" class="shp17" d="M853.71 988.25C857.4 988.22 861.05 988.18 864.63 988.15L864.63 1023.63C861.05 1023.66 857.4 1023.7 853.71 1023.73L853.71 988.25Z" />
					<path id="&lt;Path&gt;" class="shp17" d="M875.55 988.04C879.27 987.97 882.92 987.93 886.46 987.86L886.46 1023.34C882.92 1023.38 879.27 1023.45 875.55 1023.48L875.55 988.04Z" />
					<path id="&lt;Path&gt;" class="shp17" d="M897.38 987.69C901.1 987.61 904.75 987.54 908.29 987.47L908.29 1022.92C904.75 1022.99 901.1 1023.06 897.38 1023.13L897.38 987.69Z" />
					<path id="&lt;Path&gt;" class="shp17" d="M919.18 987.22C922.97 987.12 926.58 987.01 930.09 986.91L930.09 1022.35C926.58 1022.46 922.97 1022.56 919.18 1022.67L919.18 987.22Z" />
					<path id="&lt;Path&gt;" class="shp17" d="M941.01 986.55C944.87 986.45 948.52 986.3 951.93 986.16L951.93 1021.53C948.52 1021.71 944.87 1021.85 941.01 1021.99L941.01 986.55Z" />
					<path id="&lt;Path&gt;" class="shp17" d="M973.76 984.89L973.76 1020.26C970.71 1020.51 967.06 1020.75 962.84 1021L962.84 985.63C967.06 985.42 970.71 985.17 973.76 984.89Z" />
					<path id="&lt;Path&gt;" class="shp17" d="M624.57 984.89L624.57 1020.26C617.52 1019.66 613.66 1019.02 613.66 1018.34L613.66 983.01C613.66 983.68 617.52 984.32 624.57 984.89Z" />
					<path id="&lt;Path&gt;" class="shp17" d="M646.4 986.16L646.4 1021.53C642.43 1021.39 638.78 1021.22 635.49 1021L635.49 985.63C638.78 985.81 642.43 985.98 646.4 986.16Z" />
					<path id="&lt;Path&gt;" class="shp17" d="M668.24 986.91L668.24 1022.35C664.41 1022.21 660.76 1022.1 657.32 1021.99L657.32 986.55C660.76 986.69 664.41 986.84 668.24 986.91Z" />
					<path id="&lt;Path&gt;" class="shp17" d="M690.04 987.47L690.04 1022.92C686.31 1022.85 682.66 1022.74 679.15 1022.67L679.15 987.22C682.66 987.3 686.31 987.37 690.04 987.47Z" />
					<path id="&lt;Path&gt;" class="shp17" d="M711.87 987.86L711.87 1023.34C708.15 1023.27 704.5 1023.2 700.95 1023.13L700.95 987.69C704.5 987.76 708.15 987.79 711.87 987.86Z" />
					<path id="&lt;Path&gt;" class="shp17" d="M733.7 988.15L733.7 1023.63C730.02 1023.59 726.36 1023.52 722.78 1023.48L722.78 988.04C726.36 988.08 730.02 988.11 733.7 988.15Z" />
					<path id="&lt;Path&gt;" class="shp17" d="M755.53 988.36L755.53 1023.84C751.85 1023.8 748.2 1023.77 744.62 1023.73L744.62 988.25C748.2 988.29 751.85 988.32 755.53 988.36Z" />
					<path id="&lt;Path&gt;" class="shp17" d="M777.33 988.47L777.33 1023.94C773.65 1023.94 769.99 1023.91 766.42 1023.87L766.42 988.43C769.99 988.43 773.65 988.47 777.33 988.47Z" />
					<path id="&lt;Path&gt;" class="shp17" d="M799.16 988.5L799.16 1023.98C799.13 1023.98 799.13 1023.98 799.09 1023.98C795.44 1023.98 791.83 1023.98 788.25 1023.94L788.25 988.47C791.83 988.5 795.44 988.5 799.09 988.5C799.13 988.5 799.13 988.5 799.16 988.5Z" />
					<path id="&lt;Path&gt;" class="shp17" d="M821 988.47L821 1023.94C817.38 1023.94 813.77 1023.98 810.08 1023.98L810.08 988.5C813.77 988.5 817.38 988.47 821 988.47Z" />
					<path id="&lt;Path&gt;" class="shp17" d="M842.8 988.36L842.8 1023.84C839.22 1023.84 835.6 1023.87 831.91 1023.91L831.91 988.43C835.6 988.39 839.22 988.36 842.8 988.36Z" />
					<path id="&lt;Path&gt;" class="shp17" d="M864.63 988.15L864.63 1023.63C861.05 1023.66 857.4 1023.7 853.71 1023.73L853.71 988.25C857.4 988.22 861.05 988.18 864.63 988.15Z" />
					<path id="&lt;Path&gt;" class="shp17" d="M886.46 987.86L886.46 1023.34C882.92 1023.38 879.27 1023.45 875.55 1023.48L875.55 988.04C879.27 987.97 882.92 987.93 886.46 987.86Z" />
					<path id="&lt;Path&gt;" class="shp17" d="M908.29 987.47L908.29 1022.92C904.75 1022.99 901.1 1023.06 897.38 1023.13L897.38 987.69C901.1 987.61 904.75 987.54 908.29 987.47Z" />
					<path id="&lt;Path&gt;" class="shp17" d="M930.09 986.91L930.09 1022.35C926.58 1022.46 922.97 1022.56 919.18 1022.67L919.18 987.22C922.97 987.12 926.58 987.01 930.09 986.91Z" />
					<path id="&lt;Path&gt;" class="shp17" d="M951.93 986.16L951.93 1021.53C948.52 1021.71 944.87 1021.85 941.01 1021.99L941.01 986.55C944.87 986.45 948.52 986.3 951.93 986.16Z" />
					<path id="&lt;Path&gt;" class="shp17" d="M973.76 984.89L973.76 1020.26C970.71 1020.51 967.06 1020.75 962.84 1021L962.84 985.63C967.06 985.42 970.71 985.17 973.76 984.89Z" />
				</g>
			</g>
			<g id="&lt;Group&gt;">
				<path id="&lt;Path&gt;" class="shp16" d="M973.74 944.62C973.74 947.75 890.72 950.13 788.17 950.13C685.77 950.13 602.75 947.75 602.75 944.62C602.75 941.49 685.77 938.95 788.17 938.95C890.72 938.95 973.74 941.49 973.74 944.62Z" />
				<path id="&lt;Path&gt;" class="shp17" d="M973.74 944.62L973.74 979.94C973.74 983.07 890.72 985.61 788.17 985.61C685.77 985.61 602.75 983.07 602.75 979.94L602.75 944.62C602.75 947.75 685.77 950.13 788.17 950.13C890.72 950.13 973.74 947.75 973.74 944.62Z" />
				<g id="&lt;Group&gt;" style="opacity: 0.302;mix-blend-mode: multiply">
					<path id="&lt;Path&gt;" class="shp17" d="M613.65 946.5L613.65 981.88C606.6 981.27 602.74 980.64 602.74 979.96L602.74 944.63C602.74 945.3 606.6 945.94 613.65 946.5Z" />
					<path id="&lt;Path&gt;" class="shp17" d="M624.57 947.25C627.87 947.43 631.52 947.6 635.49 947.78L635.49 983.15C631.52 983.01 627.87 982.83 624.57 982.62L624.57 947.25Z" />
					<path id="&lt;Path&gt;" class="shp17" d="M646.4 948.17C649.84 948.31 653.49 948.45 657.32 948.53L657.32 983.97C653.49 983.83 649.84 983.72 646.4 983.61L646.4 948.17Z" />
					<path id="&lt;Path&gt;" class="shp17" d="M668.24 948.84C671.75 948.91 675.4 948.99 679.12 949.09L679.12 984.54C675.4 984.46 671.75 984.36 668.24 984.29L668.24 948.84Z" />
					<path id="&lt;Path&gt;" class="shp17" d="M690.03 949.3C693.58 949.38 697.23 949.41 700.95 949.48L700.95 984.96C697.23 984.89 693.58 984.82 690.03 984.75L690.03 949.3Z" />
					<path id="&lt;Path&gt;" class="shp17" d="M711.87 949.66C715.45 949.69 719.1 949.73 722.78 949.77L722.78 985.24C719.1 985.21 715.45 985.14 711.87 985.1L711.87 949.66Z" />
					<path id="&lt;Path&gt;" class="shp17" d="M733.7 949.87C737.28 949.91 740.93 949.94 744.62 949.98L744.62 985.46C740.93 985.42 737.28 985.39 733.7 985.35L733.7 949.87Z" />
					<path id="&lt;Path&gt;" class="shp17" d="M755.5 950.05C759.08 950.05 762.73 950.08 766.41 950.08L766.41 985.56C762.73 985.56 759.08 985.53 755.5 985.49L755.5 950.05Z" />
					<path id="&lt;Path&gt;" class="shp17" d="M788.18 950.12C788.21 950.12 788.21 950.12 788.25 950.12L788.25 985.6C788.21 985.6 788.21 985.6 788.18 985.6C784.53 985.6 780.91 985.6 777.33 985.56L777.33 950.08C780.91 950.12 784.53 950.12 788.18 950.12Z" />
					<path id="&lt;Path&gt;" class="shp17" d="M799.16 950.12C802.85 950.12 806.47 950.08 810.08 950.08L810.08 985.56C806.47 985.56 802.85 985.6 799.16 985.6L799.16 950.12Z" />
					<path id="&lt;Path&gt;" class="shp17" d="M821 950.05C824.68 950.01 828.3 949.98 831.88 949.98L831.88 985.46C828.3 985.46 824.68 985.49 821 985.53L821 950.05Z" />
					<path id="&lt;Path&gt;" class="shp17" d="M842.79 949.87C846.48 949.84 850.13 949.8 853.71 949.77L853.71 985.24C850.13 985.28 846.48 985.31 842.79 985.35L842.79 949.87Z" />
					<path id="&lt;Path&gt;" class="shp17" d="M864.63 949.66C868.35 949.59 872 949.55 875.54 949.48L875.54 984.96C872 985 868.35 985.07 864.63 985.1L864.63 949.66Z" />
					<path id="&lt;Path&gt;" class="shp17" d="M886.46 949.3C890.18 949.23 893.83 949.16 897.38 949.09L897.38 984.54C893.83 984.61 890.18 984.68 886.46 984.75L886.46 949.3Z" />
					<path id="&lt;Path&gt;" class="shp17" d="M908.26 948.84C912.05 948.74 915.67 948.63 919.18 948.53L919.18 983.97C915.67 984.07 912.05 984.18 908.26 984.29L908.26 948.84Z" />
					<path id="&lt;Path&gt;" class="shp17" d="M930.09 948.17C933.95 948.06 937.61 947.92 941.01 947.78L941.01 983.15C937.61 983.33 933.95 983.47 930.09 983.61L930.09 948.17Z" />
					<path id="&lt;Path&gt;" class="shp17" d="M962.84 946.5L962.84 981.88C959.79 982.13 956.14 982.37 951.92 982.62L951.92 947.25C956.14 947.04 959.79 946.79 962.84 946.5Z" />
					<path id="&lt;Path&gt;" class="shp17" d="M613.65 946.5L613.65 981.88C606.6 981.27 602.74 980.64 602.74 979.96L602.74 944.63C602.74 945.3 606.6 945.94 613.65 946.5Z" />
					<path id="&lt;Path&gt;" class="shp17" d="M635.49 947.78L635.49 983.15C631.52 983.01 627.87 982.83 624.57 982.62L624.57 947.25C627.87 947.43 631.52 947.6 635.49 947.78Z" />
					<path id="&lt;Path&gt;" class="shp17" d="M657.32 948.53L657.32 983.97C653.49 983.83 649.84 983.72 646.4 983.61L646.4 948.17C649.84 948.31 653.49 948.45 657.32 948.53Z" />
					<path id="&lt;Path&gt;" class="shp17" d="M679.12 949.09L679.12 984.54C675.4 984.46 671.75 984.36 668.24 984.29L668.24 948.84C671.75 948.91 675.4 948.99 679.12 949.09Z" />
					<path id="&lt;Path&gt;" class="shp17" d="M700.95 949.48L700.95 984.96C697.23 984.89 693.58 984.82 690.03 984.75L690.03 949.3C693.58 949.38 697.23 949.41 700.95 949.48Z" />
					<path id="&lt;Path&gt;" class="shp17" d="M722.78 949.77L722.78 985.24C719.1 985.21 715.45 985.14 711.87 985.1L711.87 949.66C715.45 949.69 719.1 949.73 722.78 949.77Z" />
					<path id="&lt;Path&gt;" class="shp17" d="M744.62 949.98L744.62 985.46C740.93 985.42 737.28 985.39 733.7 985.35L733.7 949.87C737.28 949.91 740.93 949.94 744.62 949.98Z" />
					<path id="&lt;Path&gt;" class="shp17" d="M766.41 950.08L766.41 985.56C762.73 985.56 759.08 985.53 755.5 985.49L755.5 950.05C759.08 950.05 762.73 950.08 766.41 950.08Z" />
					<path id="&lt;Path&gt;" class="shp17" d="M788.25 950.12L788.25 985.6C788.21 985.6 788.21 985.6 788.18 985.6C784.53 985.6 780.91 985.6 777.33 985.56L777.33 950.08C780.91 950.12 784.53 950.12 788.18 950.12C788.21 950.12 788.21 950.12 788.25 950.12Z" />
					<path id="&lt;Path&gt;" class="shp17" d="M810.08 950.08L810.08 985.56C806.47 985.56 802.85 985.6 799.16 985.6L799.16 950.12C802.85 950.12 806.47 950.08 810.08 950.08Z" />
					<path id="&lt;Path&gt;" class="shp17" d="M831.88 949.98L831.88 985.46C828.3 985.46 824.68 985.49 821 985.53L821 950.05C824.68 950.01 828.3 949.98 831.88 949.98Z" />
					<path id="&lt;Path&gt;" class="shp17" d="M853.71 949.77L853.71 985.24C850.13 985.28 846.48 985.31 842.79 985.35L842.79 949.87C846.48 949.84 850.13 949.8 853.71 949.77Z" />
					<path id="&lt;Path&gt;" class="shp17" d="M875.54 949.48L875.54 984.96C872 985 868.35 985.07 864.63 985.1L864.63 949.66C868.35 949.59 872 949.55 875.54 949.48Z" />
					<path id="&lt;Path&gt;" class="shp17" d="M897.38 949.09L897.38 984.54C893.83 984.61 890.18 984.68 886.46 984.75L886.46 949.3C890.18 949.23 893.83 949.16 897.38 949.09Z" />
					<path id="&lt;Path&gt;" class="shp17" d="M919.18 948.53L919.18 983.97C915.67 984.07 912.05 984.18 908.26 984.29L908.26 948.84C912.05 948.74 915.67 948.63 919.18 948.53Z" />
					<path id="&lt;Path&gt;" class="shp17" d="M941.01 947.78L941.01 983.15C937.61 983.33 933.95 983.47 930.09 983.61L930.09 948.17C933.95 948.06 937.61 947.92 941.01 947.78Z" />
					<path id="&lt;Path&gt;" class="shp17" d="M962.84 946.5L962.84 981.88C959.79 982.13 956.14 982.37 951.92 982.62L951.92 947.25C956.14 947.04 959.79 946.79 962.84 946.5Z" />
				</g>
			</g>
			<g id="&lt;Group&gt;">
				<path id="&lt;Path&gt;" class="shp11" d="M960.17 903.55C960.17 906.68 877.14 909.07 774.6 909.07C672.2 909.07 589.18 906.68 589.18 903.55C589.18 900.42 672.2 897.89 774.6 897.89C877.14 897.89 960.17 900.42 960.17 903.55Z" />
				<path id="&lt;Path&gt;" class="shp15" d="M929.12 904.04C929.12 905.76 859.99 907.08 774.61 907.08C689.35 907.08 620.23 905.76 620.23 904.04C620.23 902.32 689.35 900.92 774.61 900.92C859.99 900.92 929.12 902.32 929.12 904.04Z" />
				<path id="&lt;Path&gt;" class="shp10" d="M960.17 903.55L960.17 938.88C960.17 942.01 877.14 944.54 774.6 944.54C672.2 944.54 589.18 942.01 589.18 938.88L589.18 903.55C589.18 906.68 672.2 909.07 774.6 909.07C877.14 909.07 960.17 906.68 960.17 903.55Z" />
				<g id="&lt;Group&gt;" style="opacity: 0.302;mix-blend-mode: multiply">
					<path id="&lt;Path&gt;" class="shp10" d="M600.08 905.44L600.08 940.81C593.03 940.21 589.16 939.57 589.16 938.9L589.16 903.56C589.16 904.24 593.03 904.87 600.08 905.44Z" />
					<path id="&lt;Path&gt;" class="shp10" d="M611 906.19C614.29 906.36 617.94 906.54 621.91 906.72L621.91 942.09C617.94 941.95 614.29 941.77 611 941.56L611 906.19Z" />
					<path id="&lt;Path&gt;" class="shp10" d="M632.83 907.11C636.27 907.25 639.92 907.39 643.74 907.46L643.74 942.9C639.92 942.76 636.27 942.66 632.83 942.55L632.83 907.11Z" />
					<path id="&lt;Path&gt;" class="shp10" d="M654.66 907.78C658.17 907.85 661.82 907.92 665.54 908.03L665.54 943.47C661.82 943.4 658.17 943.29 654.66 943.22L654.66 907.78Z" />
					<path id="&lt;Path&gt;" class="shp10" d="M676.46 908.24C680 908.31 683.65 908.35 687.38 908.42L687.38 943.9C683.65 943.83 680 943.76 676.46 943.68L676.46 908.24Z" />
					<path id="&lt;Path&gt;" class="shp10" d="M698.29 908.6C701.87 908.63 705.52 908.67 709.21 908.7L709.21 944.18C705.52 944.15 701.87 944.07 698.29 944.04L698.29 908.6Z" />
					<path id="&lt;Path&gt;" class="shp10" d="M720.13 908.81C723.7 908.84 727.36 908.88 731.04 908.91L731.04 944.39C727.36 944.36 723.7 944.32 720.13 944.29L720.13 908.81Z" />
					<path id="&lt;Path&gt;" class="shp10" d="M741.92 908.99C745.5 908.99 749.15 909.02 752.84 909.02L752.84 944.5C749.15 944.5 745.5 944.46 741.92 944.43L741.92 908.99Z" />
					<path id="&lt;Path&gt;" class="shp10" d="M774.6 909.06C774.64 909.06 774.64 909.06 774.67 909.06L774.67 944.54C774.64 944.54 774.64 944.54 774.6 944.54C770.95 944.54 767.34 944.54 763.76 944.5L763.76 909.02C767.34 909.06 770.95 909.06 774.6 909.06Z" />
					<path id="&lt;Path&gt;" class="shp10" d="M785.59 909.06C789.27 909.06 792.89 909.02 796.51 909.02L796.51 944.5C792.89 944.5 789.27 944.54 785.59 944.54L785.59 909.06Z" />
					<path id="&lt;Path&gt;" class="shp10" d="M807.42 908.99C811.11 908.95 814.72 908.91 818.3 908.91L818.3 944.39C814.72 944.39 811.11 944.43 807.42 944.46L807.42 908.99Z" />
					<path id="&lt;Path&gt;" class="shp10" d="M829.22 908.81C832.91 908.77 836.56 908.74 840.14 908.7L840.14 944.18C836.56 944.22 832.91 944.25 829.22 944.29L829.22 908.81Z" />
					<path id="&lt;Path&gt;" class="shp10" d="M851.05 908.6C854.77 908.52 858.42 908.49 861.97 908.42L861.97 943.9C858.42 943.93 854.77 944 851.05 944.04L851.05 908.6Z" />
					<path id="&lt;Path&gt;" class="shp10" d="M872.89 908.24C876.61 908.17 880.26 908.1 883.8 908.03L883.8 943.47C880.26 943.54 876.61 943.61 872.89 943.68L872.89 908.24Z" />
					<path id="&lt;Path&gt;" class="shp10" d="M894.68 907.78C898.48 907.67 902.09 907.57 905.6 907.46L905.6 942.9C902.09 943.01 898.48 943.12 894.68 943.22L894.68 907.78Z" />
					<path id="&lt;Path&gt;" class="shp10" d="M916.52 907.11C920.38 907 924.03 906.86 927.43 906.72L927.43 942.09C924.03 942.27 920.38 942.41 916.52 942.55L916.52 907.11Z" />
					<path id="&lt;Path&gt;" class="shp10" d="M949.27 905.44L949.27 940.81C946.22 941.06 942.57 941.31 938.35 941.56L938.35 906.19C942.57 905.97 946.22 905.72 949.27 905.44Z" />
					<path id="&lt;Path&gt;" class="shp10" d="M600.08 905.44L600.08 940.81C593.03 940.21 589.16 939.57 589.16 938.9L589.16 903.56C589.16 904.24 593.03 904.87 600.08 905.44Z" />
					<path id="&lt;Path&gt;" class="shp10" d="M621.91 906.72L621.91 942.09C617.94 941.95 614.29 941.77 611 941.56L611 906.19C614.29 906.36 617.94 906.54 621.91 906.72Z" />
					<path id="&lt;Path&gt;" class="shp10" d="M643.74 907.46L643.74 942.9C639.92 942.76 636.27 942.66 632.83 942.55L632.83 907.11C636.27 907.25 639.92 907.39 643.74 907.46Z" />
					<path id="&lt;Path&gt;" class="shp10" d="M665.54 908.03L665.54 943.47C661.82 943.4 658.17 943.29 654.66 943.22L654.66 907.78C658.17 907.85 661.82 907.92 665.54 908.03Z" />
					<path id="&lt;Path&gt;" class="shp10" d="M687.38 908.42L687.38 943.9C683.65 943.83 680 943.76 676.46 943.68L676.46 908.24C680 908.31 683.65 908.35 687.38 908.42Z" />
					<path id="&lt;Path&gt;" class="shp10" d="M709.21 908.7L709.21 944.18C705.52 944.15 701.87 944.07 698.29 944.04L698.29 908.6C701.87 908.63 705.52 908.67 709.21 908.7Z" />
					<path id="&lt;Path&gt;" class="shp10" d="M731.04 908.91L731.04 944.39C727.36 944.36 723.7 944.32 720.13 944.29L720.13 908.81C723.7 908.84 727.36 908.88 731.04 908.91Z" />
					<path id="&lt;Path&gt;" class="shp10" d="M752.84 909.02L752.84 944.5C749.15 944.5 745.5 944.46 741.92 944.43L741.92 908.99C745.5 908.99 749.15 909.02 752.84 909.02Z" />
					<path id="&lt;Path&gt;" class="shp10" d="M774.67 909.06L774.67 944.54C774.64 944.54 774.64 944.54 774.6 944.54C770.95 944.54 767.34 944.54 763.76 944.5L763.76 909.02C767.34 909.06 770.95 909.06 774.6 909.06C774.64 909.06 774.64 909.06 774.67 909.06Z" />
					<path id="&lt;Path&gt;" class="shp10" d="M796.51 909.02L796.51 944.5C792.89 944.5 789.27 944.54 785.59 944.54L785.59 909.06C789.27 909.06 792.89 909.02 796.51 909.02Z" />
					<path id="&lt;Path&gt;" class="shp10" d="M818.3 908.91L818.3 944.39C814.72 944.39 811.11 944.43 807.42 944.46L807.42 908.99C811.11 908.95 814.72 908.91 818.3 908.91Z" />
					<path id="&lt;Path&gt;" class="shp10" d="M840.14 908.7L840.14 944.18C836.56 944.22 832.91 944.25 829.22 944.29L829.22 908.81C832.91 908.77 836.56 908.74 840.14 908.7Z" />
					<path id="&lt;Path&gt;" class="shp10" d="M861.97 908.42L861.97 943.9C858.42 943.93 854.77 944 851.05 944.04L851.05 908.6C854.77 908.52 858.42 908.49 861.97 908.42Z" />
					<path id="&lt;Path&gt;" class="shp10" d="M883.8 908.03L883.8 943.47C880.26 943.54 876.61 943.61 872.89 943.68L872.89 908.24C876.61 908.17 880.26 908.1 883.8 908.03Z" />
					<path id="&lt;Path&gt;" class="shp10" d="M905.6 907.46L905.6 942.9C902.09 943.01 898.48 943.12 894.68 943.22L894.68 907.78C898.48 907.67 902.09 907.57 905.6 907.46Z" />
					<path id="&lt;Path&gt;" class="shp10" d="M927.43 906.72L927.43 942.09C924.03 942.27 920.38 942.41 916.52 942.55L916.52 907.11C920.38 907 924.03 906.86 927.43 906.72Z" />
					<path id="&lt;Path&gt;" class="shp10" d="M949.27 905.44L949.27 940.81C946.22 941.06 942.57 941.31 938.35 941.56L938.35 906.19C942.57 905.97 946.22 905.72 949.27 905.44Z" />
				</g>
			</g>
			<g id="&lt;Group&gt;">
				<path id="&lt;Path&gt;" class="shp16" d="M981.94 862.99C981.94 866.12 898.92 868.51 796.37 868.51C693.97 868.51 610.95 866.12 610.95 862.99C610.95 859.86 693.97 857.33 796.37 857.33C898.92 857.33 981.94 859.86 981.94 862.99Z" />
				<path id="&lt;Path&gt;" class="shp17" d="M981.94 862.99L981.94 898.32C981.94 901.45 898.92 903.98 796.37 903.98C693.97 903.98 610.95 901.45 610.95 898.32L610.95 862.99C610.95 866.12 693.97 868.51 796.37 868.51C898.92 868.51 981.94 866.12 981.94 862.99Z" />
				<g id="&lt;Group&gt;" style="opacity: 0.302;mix-blend-mode: multiply">
					<path id="&lt;Path&gt;" class="shp17" d="M621.85 864.88L621.85 900.25C614.8 899.65 610.94 899.01 610.94 898.34L610.94 863C610.94 863.68 614.8 864.31 621.85 864.88Z" />
					<path id="&lt;Path&gt;" class="shp17" d="M632.77 865.63C636.07 865.8 639.72 865.98 643.69 866.16L643.69 901.53C639.72 901.39 636.07 901.21 632.77 901L632.77 865.63Z" />
					<path id="&lt;Path&gt;" class="shp17" d="M654.6 866.55C658.04 866.69 661.69 866.83 665.52 866.9L665.52 902.34C661.69 902.2 658.04 902.1 654.6 901.99L654.6 866.55Z" />
					<path id="&lt;Path&gt;" class="shp17" d="M676.44 867.22C679.95 867.29 683.6 867.36 687.32 867.47L687.32 902.91C683.6 902.84 679.95 902.73 676.44 902.66L676.44 867.22Z" />
					<path id="&lt;Path&gt;" class="shp17" d="M698.23 867.68C701.78 867.75 705.43 867.79 709.15 867.86L709.15 903.34C705.43 903.27 701.78 903.2 698.23 903.12L698.23 867.68Z" />
					<path id="&lt;Path&gt;" class="shp17" d="M720.07 868.04C723.65 868.07 727.3 868.11 730.98 868.14L730.98 903.62C727.3 903.59 723.65 903.51 720.07 903.48L720.07 868.04Z" />
					<path id="&lt;Path&gt;" class="shp17" d="M741.9 868.25C745.48 868.28 749.13 868.32 752.82 868.35L752.82 903.83C749.13 903.8 745.48 903.76 741.9 903.73L741.9 868.25Z" />
					<path id="&lt;Path&gt;" class="shp17" d="M763.7 868.43C767.28 868.43 770.93 868.46 774.61 868.46L774.61 903.94C770.93 903.94 767.28 903.9 763.7 903.87L763.7 868.43Z" />
					<path id="&lt;Path&gt;" class="shp17" d="M796.38 868.5C796.41 868.5 796.41 868.5 796.45 868.5L796.45 903.98C796.41 903.98 796.41 903.98 796.38 903.98C792.73 903.98 789.11 903.98 785.53 903.94L785.53 868.46C789.11 868.5 792.73 868.5 796.38 868.5Z" />
					<path id="&lt;Path&gt;" class="shp17" d="M807.36 868.5C811.05 868.5 814.67 868.46 818.28 868.46L818.28 903.94C814.67 903.94 811.05 903.98 807.36 903.98L807.36 868.5Z" />
					<path id="&lt;Path&gt;" class="shp17" d="M829.2 868.43C832.88 868.39 836.5 868.35 840.08 868.35L840.08 903.83C836.5 903.83 832.88 903.87 829.2 903.9L829.2 868.43Z" />
					<path id="&lt;Path&gt;" class="shp17" d="M850.99 868.25C854.68 868.21 858.33 868.18 861.91 868.14L861.91 903.62C858.33 903.66 854.68 903.69 850.99 903.73L850.99 868.25Z" />
					<path id="&lt;Path&gt;" class="shp17" d="M872.83 868.04C876.55 867.96 880.2 867.93 883.74 867.86L883.74 903.34C880.2 903.37 876.55 903.44 872.83 903.48L872.83 868.04Z" />
					<path id="&lt;Path&gt;" class="shp17" d="M894.66 867.68C898.38 867.61 902.03 867.54 905.58 867.47L905.58 902.91C902.03 902.98 898.38 903.05 894.66 903.12L894.66 867.68Z" />
					<path id="&lt;Path&gt;" class="shp17" d="M916.46 867.22C920.25 867.11 923.87 867.01 927.37 866.9L927.37 902.34C923.87 902.45 920.25 902.56 916.46 902.66L916.46 867.22Z" />
					<path id="&lt;Path&gt;" class="shp17" d="M938.29 866.55C942.15 866.44 945.81 866.3 949.21 866.16L949.21 901.53C945.81 901.71 942.15 901.85 938.29 901.99L938.29 866.55Z" />
					<path id="&lt;Path&gt;" class="shp17" d="M971.04 864.88L971.04 900.25C967.99 900.5 964.34 900.75 960.12 901L960.12 865.63C964.34 865.41 967.99 865.16 971.04 864.88Z" />
					<path id="&lt;Path&gt;" class="shp17" d="M621.85 864.88L621.85 900.25C614.8 899.65 610.94 899.01 610.94 898.34L610.94 863C610.94 863.68 614.8 864.31 621.85 864.88Z" />
					<path id="&lt;Path&gt;" class="shp17" d="M643.69 866.16L643.69 901.53C639.72 901.39 636.07 901.21 632.77 901L632.77 865.63C636.07 865.8 639.72 865.98 643.69 866.16Z" />
					<path id="&lt;Path&gt;" class="shp17" d="M665.52 866.9L665.52 902.34C661.69 902.2 658.04 902.1 654.6 901.99L654.6 866.55C658.04 866.69 661.69 866.83 665.52 866.9Z" />
					<path id="&lt;Path&gt;" class="shp17" d="M687.32 867.47L687.32 902.91C683.6 902.84 679.95 902.73 676.44 902.66L676.44 867.22C679.95 867.29 683.6 867.36 687.32 867.47Z" />
					<path id="&lt;Path&gt;" class="shp17" d="M709.15 867.86L709.15 903.34C705.43 903.27 701.78 903.2 698.23 903.12L698.23 867.68C701.78 867.75 705.43 867.79 709.15 867.86Z" />
					<path id="&lt;Path&gt;" class="shp17" d="M730.98 868.14L730.98 903.62C727.3 903.59 723.65 903.51 720.07 903.48L720.07 868.04C723.65 868.07 727.3 868.11 730.98 868.14Z" />
					<path id="&lt;Path&gt;" class="shp17" d="M752.82 868.35L752.82 903.83C749.13 903.8 745.48 903.76 741.9 903.73L741.9 868.25C745.48 868.28 749.13 868.32 752.82 868.35Z" />
					<path id="&lt;Path&gt;" class="shp17" d="M774.61 868.46L774.61 903.94C770.93 903.94 767.28 903.9 763.7 903.87L763.7 868.43C767.28 868.43 770.93 868.46 774.61 868.46Z" />
					<path id="&lt;Path&gt;" class="shp17" d="M796.45 868.5L796.45 903.98C796.41 903.98 796.41 903.98 796.38 903.98C792.73 903.98 789.11 903.98 785.53 903.94L785.53 868.46C789.11 868.5 792.73 868.5 796.38 868.5C796.41 868.5 796.41 868.5 796.45 868.5Z" />
					<path id="&lt;Path&gt;" class="shp17" d="M818.28 868.46L818.28 903.94C814.67 903.94 811.05 903.98 807.36 903.98L807.36 868.5C811.05 868.5 814.67 868.46 818.28 868.46Z" />
					<path id="&lt;Path&gt;" class="shp17" d="M840.08 868.35L840.08 903.83C836.5 903.83 832.88 903.87 829.2 903.9L829.2 868.43C832.88 868.39 836.5 868.35 840.08 868.35Z" />
					<path id="&lt;Path&gt;" class="shp17" d="M861.91 868.14L861.91 903.62C858.33 903.66 854.68 903.69 850.99 903.73L850.99 868.25C854.68 868.21 858.33 868.18 861.91 868.14Z" />
					<path id="&lt;Path&gt;" class="shp17" d="M883.74 867.86L883.74 903.34C880.2 903.37 876.55 903.44 872.83 903.48L872.83 868.04C876.55 867.96 880.2 867.93 883.74 867.86Z" />
					<path id="&lt;Path&gt;" class="shp17" d="M905.58 867.47L905.58 902.91C902.03 902.98 898.38 903.05 894.66 903.12L894.66 867.68C898.38 867.61 902.03 867.54 905.58 867.47Z" />
					<path id="&lt;Path&gt;" class="shp17" d="M927.37 866.9L927.37 902.34C923.87 902.45 920.25 902.56 916.46 902.66L916.46 867.22C920.25 867.11 923.87 867.01 927.37 866.9Z" />
					<path id="&lt;Path&gt;" class="shp17" d="M949.21 866.16L949.21 901.53C945.81 901.71 942.15 901.85 938.29 901.99L938.29 866.55C942.15 866.44 945.81 866.3 949.21 866.16Z" />
					<path id="&lt;Path&gt;" class="shp17" d="M971.04 864.88L971.04 900.25C967.99 900.5 964.34 900.75 960.12 901L960.12 865.63C964.34 865.41 967.99 865.16 971.04 864.88Z" />
				</g>
			</g>
			<path id="&lt;Path&gt;" class="shp13" d="M798.75 919.25C798.75 996.54 740.91 1059.2 669.55 1059.2C598.19 1059.2 540.34 996.54 540.34 919.25C540.34 841.95 598.19 779.29 669.55 779.29C740.91 779.29 798.75 841.95 798.75 919.25Z" />
			<g id="&lt;Group&gt;">
				<path id="&lt;Path&gt;" class="shp17" d="M783.28 916.46C783.28 996.69 722.96 1062.38 646.43 1068.22C638.95 1069.08 628.9 1068.62 623.66 1068.15C689.94 1058.37 747.88 993.83 747.88 916.46C747.88 836.59 693.16 770.91 623.66 764.83C627.47 764.35 631.53 764.23 635.46 764.23C717 764.23 783.28 832.42 783.28 916.46Z" />
				<g id="&lt;Group&gt;" style="opacity: 0.302;mix-blend-mode: multiply">
					<path id="&lt;Path&gt;" class="shp17" d="M672.39 779.44C673.35 779.98 674.31 780.52 675.25 781.08L703.85 781.08C697.67 777.74 691.21 774.85 684.55 772.44L657.56 772.44C661.67 774.05 665.67 775.89 669.58 777.91C670.52 778.42 671.45 778.93 672.39 779.44Z" />
					<path id="&lt;Path&gt;" class="shp17" d="M698.35 798.29C698.38 798.29 698.41 798.32 698.41 798.35L729.17 798.35C725.54 795.28 721.8 792.39 717.88 789.7L688.15 789.7C691.69 792.39 695.09 795.23 698.35 798.29Z" />
					<path id="&lt;Path&gt;" class="shp17" d="M708.27 808.41C710.34 810.73 712.33 813.11 714.26 815.61L746.49 815.61C743.96 812.63 741.3 809.74 738.52 806.99L707 806.99C707.42 807.45 707.85 807.93 708.27 808.41Z" />
					<path id="&lt;Path&gt;" class="shp17" d="M721 824.96C721.68 825.96 722.31 826.95 722.93 827.94C723.55 828.93 724.18 829.92 724.77 830.94C724.97 831.29 725.17 831.6 725.37 831.94C725.54 832.25 725.74 832.59 725.91 832.9L725.93 832.9L759.24 832.9C757.37 829.95 755.42 827.06 753.35 824.26L720.52 824.26C720.69 824.48 720.86 824.74 721 824.96Z" />
					<path id="&lt;Path&gt;" class="shp17" d="M731.6 843.59C732.11 844.67 732.62 845.77 733.13 846.88C733.62 847.95 734.1 849.06 734.58 850.16L734.61 850.16L768.74 850.16C767.35 847.22 765.9 844.35 764.34 841.52L730.58 841.52C730.92 842.2 731.26 842.88 731.6 843.59Z" />
					<path id="&lt;Path&gt;" class="shp17" d="M738.61 860.6C738.97 861.65 739.31 862.67 739.65 863.71C740.02 864.88 740.39 866.04 740.76 867.23C740.76 867.29 740.79 867.37 740.82 867.43L775.57 867.43C774.61 864.51 773.59 861.65 772.45 858.81L737.98 858.81C738.18 859.41 738.41 860 738.61 860.6Z" />
					<path id="&lt;Path&gt;" class="shp17" d="M743.14 876.07C743.31 876.73 743.45 877.38 743.59 878C743.91 879.22 744.16 880.44 744.39 881.69C744.59 882.68 744.79 883.67 744.96 884.69L744.98 884.69L780.13 884.69C779.54 881.77 778.86 878.91 778.12 876.07L743.17 876.07L743.14 876.07Z" />
					<path id="&lt;Path&gt;" class="shp17" d="M746.34 893.34C746.49 894.44 746.63 895.55 746.77 896.68C746.97 898.44 747.14 900.2 747.25 901.98L747.31 901.98L782.66 901.98C782.4 899.06 782.06 896.2 781.64 893.34L746.37 893.34L746.34 893.34Z" />
					<path id="&lt;Path&gt;" class="shp17" d="M783.17 910.6L747.79 910.6L747.73 910.6C747.76 911.51 747.82 912.41 747.82 913.32C747.85 914.23 747.85 915.16 747.85 916.07C747.85 917.12 747.85 918.2 747.82 919.25L747.85 919.25L783.22 919.25C783.28 918.2 783.28 917.12 783.28 916.04C783.28 914.23 783.25 912.41 783.17 910.6Z" />
					<path id="&lt;Path&gt;" class="shp17" d="M747.42 927.89C747.36 928.91 747.31 929.9 747.22 930.93C747.05 932.8 746.85 934.67 746.63 936.51L746.66 936.51L781.95 936.51C782.32 933.68 782.63 930.81 782.83 927.89L747.45 927.89L747.42 927.89Z" />
					<path id="&lt;Path&gt;" class="shp17" d="M745.38 945.16C745.38 945.21 745.35 945.3 745.35 945.38C745.1 946.74 744.84 948.08 744.59 949.44C744.42 950.43 744.22 951.42 743.96 952.41C743.85 952.89 743.76 953.35 743.65 953.8L743.68 953.8L778.69 953.8C779.4 950.94 780.02 948.08 780.56 945.16L745.41 945.16L745.38 945.16Z" />
					<path id="&lt;Path&gt;" class="shp17" d="M741.44 962.42C740.62 965.34 739.71 968.23 738.75 971.06L738.78 971.06L773.3 971.06C774.38 968.23 775.37 965.34 776.31 962.42L741.47 962.42L741.44 962.42Z" />
					<path id="&lt;Path&gt;" class="shp17" d="M735.49 979.68C735.12 980.62 734.72 981.55 734.32 982.49C733.47 984.44 732.6 986.4 731.66 988.33L765.56 988.33C767.07 985.49 768.45 982.6 769.79 979.68L735.52 979.68L735.49 979.68Z" />
					<path id="&lt;Path&gt;" class="shp17" d="M726.73 997.8C726.16 998.79 725.59 999.75 725.03 1000.72C724.97 1000.77 724.94 1000.83 724.94 1000.89C723.98 1002.47 723.01 1004.06 721.99 1005.59L754.96 1005.59C756.97 1002.79 758.85 999.92 760.66 996.97L727.18 996.97C727.01 997.26 726.87 997.51 726.73 997.8Z" />
					<path id="&lt;Path&gt;" class="shp17" d="M715.93 1014.24C715.84 1014.35 715.76 1014.49 715.64 1014.63C714.99 1015.51 714.34 1016.39 713.63 1017.24C712.98 1018.12 712.27 1018.97 711.53 1019.82C710.83 1020.67 710.12 1021.52 709.41 1022.34C709.24 1022.51 709.1 1022.71 708.95 1022.88L740.7 1022.88C743.37 1020.11 745.92 1017.21 748.39 1014.24L715.96 1014.24L715.93 1014.24Z" />
					<path id="&lt;Path&gt;" class="shp17" d="M700.37 1031.87C697.9 1034.25 695.35 1036.55 692.71 1038.7C692.12 1039.18 691.52 1039.66 690.93 1040.15L720.97 1040.15C724.69 1037.45 728.29 1034.56 731.75 1031.5L700.73 1031.5C700.62 1031.61 700.48 1031.76 700.37 1031.87Z" />
					<path id="&lt;Path&gt;" class="shp17" d="M676.67 1050.12C672.19 1052.85 667.57 1055.28 662.81 1057.41L690.19 1057.41C696.25 1054.92 702.09 1052.05 707.71 1048.79L678.79 1048.79C678.08 1049.27 677.38 1049.7 676.67 1050.12Z" />
				</g>
				<path id="&lt;Path&gt;" class="shp16" d="M747.88 916.46C747.88 993.83 696.61 1057.61 630.33 1067.38C552.85 1059.28 491.93 998.12 487.88 922.42C487.64 920.52 487.64 918.49 487.64 916.46L487.64 914.56C487.64 909.91 487.88 905.38 488.36 900.97C489.67 885.59 493.36 870.93 499.2 857.22C500.16 855.07 501.11 852.69 502.3 850.54C502.9 849.11 503.62 847.68 504.33 846.37C505.05 844.58 506 842.91 507.07 841.24C508.26 838.86 509.58 836.59 510.89 834.57C512.32 832.54 513.63 830.51 514.94 828.49C530.32 806.67 551.42 788.91 576.09 776.99C576.81 776.75 577.64 776.39 578.36 775.92C592.43 769.96 607.68 766.02 623.66 764.83C693.16 770.91 747.88 836.59 747.88 916.46Z" />
				<path id="&lt;Path&gt;" class="shp16" d="M747.83 916.5C747.83 996.71 692.69 1062.42 622.85 1068.22C545.1 1067.55 481.83 1003.28 477.93 922.41C477.71 920.51 477.71 918.51 477.71 916.5L477.71 914.5C477.71 909.93 477.93 905.36 478.37 900.91C479.6 885.54 482.94 870.95 488.29 857.24C489.18 855.02 490.07 852.68 491.07 850.56C491.63 849.11 492.3 847.67 492.97 846.33C493.63 844.55 494.53 842.88 495.42 841.2C496.53 838.87 497.76 836.64 498.98 834.52C500.21 832.52 501.43 830.51 502.66 828.51C516.69 806.67 535.96 788.85 558.57 777.04C559.24 776.71 559.91 776.37 560.58 775.93C576.62 768.47 594.33 764.23 612.82 764.23C687.34 764.23 747.83 832.4 747.83 916.5Z" />
				<g id="&lt;Group&gt;">
					<path id="&lt;Compound Path&gt;" fill-rule="evenodd" class="shp17" d="M731.43 916.35C731.43 987.64 682.42 1046.06 620.34 1051.21C551.23 1050.62 494.99 993.49 491.52 921.6C491.33 919.92 491.33 918.14 491.33 916.35L491.33 914.57C491.33 910.51 491.52 906.45 491.92 902.49C493.01 888.83 495.98 875.86 500.73 863.68C501.52 861.7 502.32 859.62 503.21 857.74C503.7 856.45 504.3 855.16 504.89 853.98C505.48 852.39 506.28 850.91 507.07 849.42C508.06 847.34 509.15 845.36 510.24 843.48C511.33 841.7 512.42 839.92 513.51 838.13C525.98 818.73 543.11 802.88 563.21 792.39C563.8 792.09 564.4 791.79 564.99 791.4C579.25 784.76 594.99 781 611.43 781C677.67 781 731.43 841.6 731.43 916.35ZM569.06 798.89C568.31 799.34 567.62 799.69 567.08 799.96C548.45 809.7 532.42 824.46 520.71 842.65L518.02 847.05L517.55 847.83C516.39 849.84 515.5 851.51 514.75 853.08L514.66 853.25L514.57 853.42C513.89 854.7 513.25 855.9 512.85 856.96L512.7 857.38L512.5 857.78C511.94 858.89 511.49 859.91 511.15 860.79L511.03 861.09L510.89 861.38C510.28 862.67 509.69 864.15 509.07 865.72L508.63 866.84C504.19 878.21 501.41 890.46 500.4 903.17L500.39 903.25L500.38 903.34C500.02 907 499.83 910.78 499.83 914.57L499.83 916.35C499.83 917.93 499.83 919.42 499.97 920.61L500 920.9L500.02 921.19C503.27 988.64 555.95 1041.94 620.02 1042.7C677.76 1037.69 722.93 982.27 722.93 916.35C722.93 846.41 672.91 789.51 611.43 789.51C596.87 789.51 582.62 792.66 569.06 798.89Z" />
				</g>
				<g id="&lt;Group&gt;">
					<path id="&lt;Path&gt;" class="shp18" d="M646.07 877.22L677.38 877.22L662.05 893.54C659.67 893.54 652.99 893.54 642.01 893.54C630.77 920.79 608.58 934.85 575.43 935.72L575.05 937.12L618.77 1017.38L591.04 1017.38L548.52 939.45L552.77 923.6C570.84 925.27 584.02 922.99 593.6 919.04C593.72 919 593.82 918.95 593.94 918.91C608.54 913.13 616.69 904.68 618.39 893.54L555.07 893.54L570.43 877.69C583.58 877.69 600.44 877.69 621.01 877.69C620.76 862.07 599.01 859.74 595.95 859.86C593.91 859.94 583.29 859.94 564.09 859.86L579.63 843.35L687 843.35L671.05 859.97C657.79 859.97 648.21 859.97 642.3 859.97C645.66 864.43 646.92 870.18 646.07 877.22Z" />
					<path id="&lt;Path&gt;" class="shp19" d="M636.88 872.27L668.19 872.27L652.86 888.59C650.48 888.59 643.8 888.59 632.82 888.59C621.58 915.83 599.39 929.9 566.24 930.77L565.86 932.17L609.58 1012.43L581.84 1012.43L539.33 934.5L543.57 918.65C561.64 920.32 574.83 918.04 584.41 914.08C584.52 914.05 584.63 914 584.74 913.95C599.34 908.18 607.5 899.72 609.2 888.59L545.88 888.59L561.24 872.74C574.39 872.74 591.25 872.74 611.82 872.74C611.57 857.12 589.82 854.79 586.76 854.91C584.72 854.98 574.1 854.98 554.9 854.91L570.44 838.4L677.8 838.4L661.85 855.02C648.6 855.02 639.01 855.02 633.11 855.02C636.47 859.48 637.73 865.23 636.88 872.27Z" />
				</g>
			</g>
		</g>
	</g>
</svg>