<svg width="257" height="30" viewBox="0 0 257 30" fill="none" xmlns="http://www.w3.org/2000/svg">
<path d="M253.4 0C241.7 0 235.7 6.9 230.3 12.9C225.2 18.9 220.7 24 211.7 24C202.7 24 198.2 18.9 193.1 12.9C188 6.9 182 0 170 0C158.3 0 152.3 6.9 146.9 12.9C141.8 18.9 137.3 24 128.3 24C119.3 24 114.8 18.9 109.7 12.9C104.3 6.9 98.3 0 86.6 0C74.9 0 68.9 6.9 63.5 12.9C58.4 18.9 53.9 24 44.9 24C35.9 24 31.4 18.9 26.3 12.9C20.9 6.9 14.9 0 3.19995 0C1.39995 0 0.199951 1.2 0.199951 3C0.199951 4.8 1.39995 6 3.19995 6C12.1999 6 16.7 11.1 21.8 17.1C27.2 23.1 33.1999 30 44.9 30C56.6 30 62.6 23.1 68 17.1C73.1 11.1 77.6 6 86.6 6C95.6 6 100.1 11.1 105.2 17.1C110.6 23.1 116.6 30 128.3 30C140 30 146 23.1 151.4 17.1C156.5 11.1 161 6 170 6C179 6 183.5 11.1 188.6 17.1C194 23.1 200 30 211.7 30C223.4 30 229.4 23.1 234.8 17.1C239.9 11.1 244.4 6 253.4 6C255.2 6 256.4 4.8 256.4 3C256.4 1.2 255.2 0 253.4 0Z" fill="#38C6F2"/>
</svg>
