<svg id="visual" viewBox="0 0 900 420" width="900" height="420" xmlns="http://www.w3.org/2000/svg" xmlns:xlink="http://www.w3.org/1999/xlink" version="1.1"><path d="M0 284L21.5 277.8C43 271.7 86 259.3 128.8 263.2C171.7 267 214.3 287 257.2 288.5C300 290 343 273 385.8 270.2C428.7 267.3 471.3 278.7 514.2 281.3C557 284 600 278 642.8 281.2C685.7 284.3 728.3 296.7 771.2 299.5C814 302.3 857 295.7 878.5 292.3L900 289L900 421L878.5 421C857 421 814 421 771.2 421C728.3 421 685.7 421 642.8 421C600 421 557 421 514.2 421C471.3 421 428.7 421 385.8 421C343 421 300 421 257.2 421C214.3 421 171.7 421 128.8 421C86 421 43 421 21.5 421L0 421Z" fill="#38c6f2"></path><path d="M0 314L21.5 310.7C43 307.3 86 300.7 128.8 297.3C171.7 294 214.3 294 257.2 297.8C300 301.7 343 309.3 385.8 315C428.7 320.7 471.3 324.3 514.2 317.7C557 311 600 294 642.8 286.7C685.7 279.3 728.3 281.7 771.2 289.2C814 296.7 857 309.3 878.5 315.7L900 322L900 421L878.5 421C857 421 814 421 771.2 421C728.3 421 685.7 421 642.8 421C600 421 557 421 514.2 421C471.3 421 428.7 421 385.8 421C343 421 300 421 257.2 421C214.3 421 171.7 421 128.8 421C86 421 43 421 21.5 421L0 421Z" fill="#15b3ec"></path><path d="M0 333L21.5 334.8C43 336.7 86 340.3 128.8 341.5C171.7 342.7 214.3 341.3 257.2 341C300 340.7 343 341.3 385.8 335.7C428.7 330 471.3 318 514.2 315.7C557 313.3 600 320.7 642.8 327.3C685.7 334 728.3 340 771.2 342.7C814 345.3 857 344.7 878.5 344.3L900 344L900 421L878.5 421C857 421 814 421 771.2 421C728.3 421 685.7 421 642.8 421C600 421 557 421 514.2 421C471.3 421 428.7 421 385.8 421C343 421 300 421 257.2 421C214.3 421 171.7 421 128.8 421C86 421 43 421 21.5 421L0 421Z" fill="#009fe5"></path><path d="M0 339L21.5 340.2C43 341.3 86 343.7 128.8 346.2C171.7 348.7 214.3 351.3 257.2 350.7C300 350 343 346 385.8 347.3C428.7 348.7 471.3 355.3 514.2 361.5C557 367.7 600 373.3 642.8 371.7C685.7 370 728.3 361 771.2 360C814 359 857 366 878.5 369.5L900 373L900 421L878.5 421C857 421 814 421 771.2 421C728.3 421 685.7 421 642.8 421C600 421 557 421 514.2 421C471.3 421 428.7 421 385.8 421C343 421 300 421 257.2 421C214.3 421 171.7 421 128.8 421C86 421 43 421 21.5 421L0 421Z" fill="#008adb"></path><path d="M0 396L21.5 394.7C43 393.3 86 390.7 128.8 386.2C171.7 381.7 214.3 375.3 257.2 373C300 370.7 343 372.3 385.8 373.5C428.7 374.7 471.3 375.3 514.2 375.2C557 375 600 374 642.8 378C685.7 382 728.3 391 771.2 392C814 393 857 386 878.5 382.5L900 379L900 421L878.5 421C857 421 814 421 771.2 421C728.3 421 685.7 421 642.8 421C600 421 557 421 514.2 421C471.3 421 428.7 421 385.8 421C343 421 300 421 257.2 421C214.3 421 171.7 421 128.8 421C86 421 43 421 21.5 421L0 421Z" fill="#0175cf"></path></svg>