<svg width="300" height="300" viewBox="0 0 300 300" fill="none" xmlns="http://www.w3.org/2000/svg">
<path d="M0 0C19.7843 12.6656 39.5686 25.4237 61.9414 28.6595C84.3143 31.9877 109.368 25.886 128.32 33.4669C147.365 41.0478 160.308 62.3112 178.151 76.641C195.901 90.9707 218.459 98.3667 234.545 112.974C250.632 127.488 260.154 149.307 269.029 170.478C277.904 191.556 286.04 212.08 291.125 233.529C296.21 255.069 298.059 277.535 300 300H0V0Z" fill="#ECF8FD"/>
<path d="M0 60C15.8089 70.1695 31.6179 80.339 49.5532 82.9276C67.4884 85.6086 87.4576 80.7088 102.712 86.8105C117.874 92.8197 128.228 109.831 142.465 121.294C156.703 132.758 174.823 138.675 187.673 150.324C200.524 162.065 208.105 179.445 215.223 196.364C222.342 213.282 228.906 229.646 232.881 246.841C236.949 264.037 238.428 281.972 240 300H0V60Z" fill="#C4EAFA"/>
<path d="M0 120C11.8336 127.581 23.7596 135.254 37.1649 137.196C50.5701 139.23 65.6395 135.532 77.0108 140.062C88.3821 144.592 96.2404 157.35 106.872 165.948C117.504 174.638 131.094 178.983 140.709 187.766C150.416 196.549 156.148 209.584 161.418 222.25C166.78 234.915 171.68 247.211 174.638 260.154C177.689 273.005 178.891 286.502 180 300H0V120Z" fill="#99DBF7"/>
<path d="M0 180C7.95069 185.085 15.8089 190.169 24.7766 191.464C33.7442 192.758 43.7288 190.354 51.3097 193.405C58.9831 196.456 64.1602 204.961 71.2789 210.693C78.3975 216.425 87.3652 219.384 93.8367 225.208C100.216 231.032 104.099 239.723 107.612 248.136C111.125 256.641 114.453 264.869 116.487 273.467C118.428 281.972 119.26 291.032 120 300H0V180Z" fill="#62CDF4"/>
<path d="M0 240C3.97535 242.496 7.95069 245.085 12.3883 245.732C16.8259 246.379 21.9106 245.177 25.7011 246.656C29.4915 248.228 32.0801 252.481 35.5932 255.347C39.1988 258.213 43.7288 259.692 46.8721 262.558C50.1079 265.516 52.0493 269.861 53.8059 274.114C55.5624 278.274 57.2265 282.435 58.2435 286.687C59.2604 291.032 59.6302 295.47 60 300H0V240Z" fill="#38C6F2"/>
</svg>
